<svg width="15" height="8" viewBox="0 0 15 8" fill="none" xmlns="http://www.w3.org/2000/svg">
<path fill-rule="evenodd" clip-rule="evenodd" d="M7.18867 0.0144806C4.483 0.0144806 1.91776 1.33486 0.326978 3.54673L0 4.00132L0.326978 4.45592C1.91774 6.66762 4.483 7.98802 7.18867 7.98802C9.89433 7.98802 12.4596 6.66765 14.0504 4.45577L14.3773 4.00119L14.0504 3.54661C12.4596 1.33501 9.89433 0.0144806 7.18867 0.0144806ZM9.30157 2.94061C9.30157 3.37149 8.95492 3.72086 8.52704 3.72086C8.09918 3.72086 7.7525 3.37147 7.7525 2.94061C7.7525 2.50972 8.09933 2.16035 8.52704 2.16035C8.95476 2.16035 9.30157 2.50972 9.30157 2.94061ZM7.18867 6.43863C5.16648 6.43863 3.23997 5.53706 1.92897 4.00132C2.66259 3.14205 3.58894 2.4817 4.6168 2.0663C4.459 2.42078 4.36903 2.81278 4.36903 3.22663C4.36903 4.79537 5.63143 6.06709 7.18867 6.06709C8.7459 6.06709 10.0083 4.79537 10.0083 3.22663C10.0083 2.81278 9.91848 2.42096 9.76054 2.0663C10.7884 2.4817 11.7147 3.14202 12.4484 4.00132C11.1374 5.53704 9.21085 6.43863 7.18867 6.43863Z" fill="black"/>
</svg>
