<svg width="10" height="20" viewBox="0 0 10 20" fill="none" xmlns="http://www.w3.org/2000/svg">
<path d="M7.9254 0H6.06429C4.64038 0 3.61762 0.357665 2.99606 1.07275C2.37429 1.78808 2.06369 2.84157 2.06369 4.23367V5.56062C2.06369 5.9113 1.79511 6.19552 1.46372 6.19552H0.820549C0.489162 6.19552 0.220581 6.47973 0.220581 6.83041V8.81889C0.220581 9.16957 0.489162 9.45378 0.820549 9.45378H1.46372C1.79511 9.45378 2.06369 9.738 2.06369 10.0887V18.2727C2.06369 18.6233 2.33227 18.9076 2.66366 18.9076H5.16071C5.4921 18.9076 5.76068 18.6233 5.76068 18.2727V10.0887C5.76068 9.738 6.0293 9.45382 6.36065 9.45382H7.62176C7.95318 9.45382 8.24996 9.17109 8.28477 8.82252L8.48394 6.82682C8.51874 6.47807 8.27836 6.19552 7.94694 6.19552H6.36045C6.02907 6.19552 5.76049 5.9113 5.76049 5.56062V4.56637C5.76049 4.32171 5.7713 4.13232 5.79307 3.99835C5.81467 3.8646 5.86345 3.73274 5.93946 3.60258C6.01524 3.47266 6.13824 3.38272 6.30804 3.33296C6.4778 3.28323 6.7038 3.25826 6.98558 3.25826H7.92514C8.25653 3.25826 8.52508 2.97405 8.52508 2.62337V0.634895C8.52534 0.284216 8.25676 0 7.9254 0Z" fill="white"/>
</svg>
