<svg width="15" height="17" viewBox="0 0 15 17" fill="none" xmlns="http://www.w3.org/2000/svg">
<path fill-rule="evenodd" clip-rule="evenodd" d="M8.95112 3.66405C9.50826 2.99235 10.1371 2.32361 10.8335 1.6875C13.2596 3.90432 15 7.52553 15 9.28125C15 13.4753 11.6421 16.875 7.5 16.875C3.35792 16.875 0 13.4753 0 9.28125C0 6.92007 2.33504 3.00487 5.625 0C6.9067 1.17103 8.03839 2.42644 8.95112 3.66405ZM1.60714 9.28125C1.60714 12.5959 4.25056 15.293 7.5 15.293C10.7494 15.293 13.3929 12.5959 13.3929 9.28125C13.3929 8.25359 12.3512 5.86538 10.7993 3.97321C10.5931 4.19799 10.3915 4.4287 10.1963 4.66436L8.87679 6.25594L7.65067 4.59349C7.06406 3.79786 6.37835 2.99498 5.63036 2.22506C3.0904 4.89078 1.60714 7.7859 1.60714 9.28125Z" fill="#CA1717"/>
<path d="M9.02801 9.61494C9.02801 9.61494 6.33538 6.23005 6.13248 6C4.71217 7.67629 4 8.65715 4 9.77084C4 12.0061 5.71998 13.3828 7.83371 13.3828C8.67946 13.3828 9.46161 13.1234 10.0964 12.6864C11.5388 11.693 11.877 9.76688 11.0761 8.26198C10.9773 8.07675 10.8672 7.88361 10.7456 7.68618L9.02801 9.61494Z" fill="#E7B40B"/>
</svg>
