<svg width="20" height="15" viewBox="0 0 20 15" fill="none" xmlns="http://www.w3.org/2000/svg">
<path fill-rule="evenodd" clip-rule="evenodd" d="M4.81836 5.15625C4.81836 2.43164 7.02612 4.08007e-07 10.0892 4.08007e-07C12.1574 -0.000802071 14.0348 1.18221 14.8893 3.0247C15.7438 4.86719 15.4173 7.02834 14.0546 8.55029C13.5566 9.10606 12.7752 10.2724 12.485 11.25H11.0475V11.2477C11.0516 11.1057 11.0742 10.9648 11.1149 10.8284C11.2853 10.3014 11.8037 8.92852 12.9744 7.62158C13.9646 6.51471 14.2014 4.94346 13.5797 3.60417C12.958 2.26488 11.5928 1.40525 10.0892 1.40625C8.04435 1.40625 6.25107 2.99883 6.25766 5.15625C6.25666 6.06318 6.59304 6.93947 7.20401 7.62158C8.38216 8.9373 8.89876 10.3125 9.06617 10.8343C9.1084 10.9678 9.1299 11.1067 9.12996 11.2465V11.25H7.69246V11.2482C7.40316 10.2709 6.62092 9.10488 6.12289 8.54824C5.28043 7.61065 4.81658 6.40457 4.81836 5.15625ZM2.77172 0.680275L4.43143 1.61777C4.65884 1.74089 4.80059 1.97451 4.80215 2.22877C4.8037 2.48302 4.66482 2.71829 4.43893 2.84406C4.21305 2.96983 3.93535 2.9665 3.71268 2.83535L2.05297 1.89785C1.82556 1.77474 1.68381 1.54111 1.68225 1.28686C1.6807 1.0326 1.81958 0.797334 2.04547 0.671567C2.27135 0.5458 2.54905 0.549129 2.77172 0.680275ZM3.86003 5.625C3.86003 5.23668 3.53823 4.92188 3.14128 4.92188H1.22461C0.827655 4.92188 0.505859 5.23668 0.505859 5.625C0.505859 6.01333 0.827655 6.32813 1.22461 6.32813H3.14128C3.53823 6.32813 3.86003 6.01333 3.86003 5.625ZM3.71268 8.41465L2.05297 9.35215C1.82556 9.47526 1.68381 9.70889 1.68225 9.96314C1.6807 10.2174 1.81958 10.4527 2.04547 10.5784C2.27135 10.7042 2.54905 10.7009 2.77172 10.5697L4.43143 9.63223C4.76713 9.43451 4.87908 9.01018 4.68313 8.67823C4.48717 8.34628 4.05553 8.22904 3.71268 8.41465ZM16.1069 2.92969C16.2331 2.92993 16.3572 2.89737 16.4663 2.83535L18.126 1.89785C18.4617 1.70014 18.5737 1.27581 18.3777 0.943856C18.1818 0.611904 17.7501 0.494666 17.4073 0.680275L15.7476 1.61777C15.466 1.77695 15.3287 2.10126 15.4129 2.40856C15.4971 2.71587 15.7817 2.92958 16.1069 2.92969ZM17.0371 4.92188H18.9538C19.3507 4.92188 19.6725 5.23668 19.6725 5.625C19.6725 6.01333 19.3507 6.32813 18.9538 6.32813H17.0371C16.6402 6.32813 16.3184 6.01333 16.3184 5.625C16.3184 5.23668 16.6402 4.92188 17.0371 4.92188ZM18.1254 9.35244L16.4657 8.41494C16.243 8.2838 15.9653 8.28047 15.7395 8.40623C15.5136 8.532 15.3747 8.76727 15.3762 9.02153C15.3778 9.27578 15.5195 9.50941 15.747 9.63252L17.4067 10.57C17.7495 10.7556 18.1812 10.6384 18.3771 10.3064C18.5731 9.97449 18.4611 9.55016 18.1254 9.35244ZM10.0892 2.34375C8.50213 2.34553 7.21601 3.60369 7.21419 5.15625C7.21419 5.41513 7.42872 5.625 7.69336 5.625C7.958 5.625 8.17253 5.41513 8.17253 5.15625C8.17385 4.12125 9.03119 3.28254 10.0892 3.28125C10.3538 3.28125 10.5684 3.07138 10.5684 2.8125C10.5684 2.55362 10.3538 2.34375 10.0892 2.34375ZM7.77572 13.7118C7.72341 13.6351 7.69539 13.545 7.69516 13.4528L7.69336 12.1875H12.485L12.4832 13.452C12.4826 13.5441 12.4547 13.6341 12.4027 13.7109L11.6689 14.7908C11.58 14.9216 11.43 15.0002 11.2694 15H8.90805C8.74778 14.9999 8.59819 14.9214 8.50944 14.7908L7.77572 13.7118Z" fill="black"/>
</svg>
