<svg width="32" height="34" viewBox="0 0 32 34" fill="none" xmlns="http://www.w3.org/2000/svg">
<rect y="0.321426" width="32" height="33.1429" rx="5" fill="#111111"/>
<path d="M11.928 19.5614H12.52C12.5947 20.0414 12.7333 20.4734 12.936 20.8574C13.1493 21.2414 13.4107 21.5668 13.72 21.8334C14.04 22.1001 14.4027 22.3081 14.808 22.4574C15.224 22.5961 15.672 22.6654 16.152 22.6654C16.9413 22.6654 17.5653 22.4788 18.024 22.1054C18.4827 21.7321 18.712 21.2254 18.712 20.5854C18.712 20.3188 18.664 20.0734 18.568 19.8494C18.4827 19.6254 18.3333 19.4121 18.12 19.2094C17.9067 18.9961 17.6187 18.7881 17.256 18.5854C16.904 18.3828 16.456 18.1641 15.912 17.9294C15.2507 17.6414 14.696 17.3641 14.248 17.0974C13.8 16.8308 13.4427 16.5534 13.176 16.2654C12.9093 15.9774 12.7173 15.6734 12.6 15.3534C12.4933 15.0228 12.44 14.6494 12.44 14.2334C12.44 13.7428 12.5253 13.2894 12.696 12.8734C12.8773 12.4574 13.128 12.1001 13.448 11.8014C13.768 11.4921 14.1467 11.2574 14.584 11.0974C15.0213 10.9268 15.5013 10.8414 16.024 10.8414C16.4933 10.8414 16.9307 10.9161 17.336 11.0654C17.7413 11.2148 18.152 11.4548 18.568 11.7854L18.984 11.0654H19.352L19.528 14.2494H18.936C18.68 13.3748 18.3067 12.7241 17.816 12.2974C17.336 11.8708 16.7547 11.6574 16.072 11.6574C15.4213 11.6574 14.904 11.8174 14.52 12.1374C14.136 12.4574 13.944 12.8894 13.944 13.4334C13.944 13.6894 13.9867 13.9241 14.072 14.1374C14.1573 14.3401 14.296 14.5374 14.488 14.7294C14.68 14.9108 14.9307 15.0974 15.24 15.2894C15.5493 15.4708 15.9333 15.6628 16.392 15.8654C17.1813 16.2174 17.8373 16.5481 18.36 16.8574C18.8827 17.1561 19.2987 17.4601 19.608 17.7694C19.9173 18.0681 20.136 18.3881 20.264 18.7294C20.392 19.0601 20.456 19.4334 20.456 19.8494C20.456 20.3828 20.3493 20.8734 20.136 21.3214C19.9227 21.7694 19.624 22.1534 19.24 22.4734C18.856 22.7934 18.3973 23.0441 17.864 23.2254C17.3307 23.3961 16.744 23.4814 16.104 23.4814C15.496 23.4814 14.9467 23.3961 14.456 23.2254C13.976 23.0548 13.4853 22.7668 12.984 22.3614L12.536 23.1454H12.168L11.928 19.5614Z" fill="white"/>
</svg>
