<svg width="135" height="34" viewBox="0 0 135 34" fill="none" xmlns="http://www.w3.org/2000/svg">
<path d="M54.5515 19.2414H55.1755C55.3248 20.2548 55.7302 21.0548 56.3915 21.6414C57.0528 22.2174 57.8688 22.5054 58.8395 22.5054C59.2342 22.5054 59.5968 22.4574 59.9275 22.3614C60.2582 22.2654 60.5408 22.1321 60.7755 21.9614C61.0102 21.7801 61.1915 21.5721 61.3195 21.3374C61.4475 21.0921 61.5115 20.8201 61.5115 20.5214C61.5115 20.2654 61.4688 20.0468 61.3835 19.8654C61.3088 19.6734 61.1595 19.4921 60.9355 19.3214C60.7115 19.1401 60.4022 18.9588 60.0075 18.7774C59.6235 18.5961 59.1222 18.3881 58.5035 18.1534C57.2555 17.6734 56.3328 17.1188 55.7355 16.4894C55.1382 15.8494 54.8395 15.0974 54.8395 14.2334C54.8395 13.7321 54.9355 13.2734 55.1275 12.8574C55.3195 12.4414 55.5862 12.0841 55.9275 11.7854C56.2795 11.4868 56.6955 11.2574 57.1755 11.0974C57.6662 10.9268 58.2048 10.8414 58.7915 10.8414C59.3355 10.8414 59.8475 10.9268 60.3275 11.0974C60.8075 11.2681 61.2822 11.5241 61.7515 11.8654L62.0395 11.0654H62.4235L62.5995 14.5214H61.9755C61.7195 13.6468 61.3195 12.9801 60.7755 12.5214C60.2315 12.0521 59.6022 11.8174 58.8875 11.8174C58.2262 11.8174 57.6875 11.9828 57.2715 12.3134C56.8662 12.6334 56.6635 13.0494 56.6635 13.5614C56.6635 13.7854 56.7008 13.9881 56.7755 14.1694C56.8502 14.3401 56.9888 14.5054 57.1915 14.6654C57.3942 14.8254 57.6715 14.9908 58.0235 15.1614C58.3755 15.3214 58.8288 15.5028 59.3835 15.7054C60.1302 15.9934 60.7648 16.2868 61.2875 16.5854C61.8208 16.8734 62.2528 17.1881 62.5835 17.5294C62.9248 17.8601 63.1755 18.2121 63.3355 18.5854C63.4955 18.9588 63.5755 19.3694 63.5755 19.8174C63.5755 20.3614 63.4582 20.8574 63.2235 21.3054C62.9888 21.7534 62.6582 22.1374 62.2315 22.4574C61.8155 22.7774 61.3142 23.0281 60.7275 23.2094C60.1515 23.3908 59.5115 23.4814 58.8075 23.4814C58.1675 23.4814 57.5915 23.3961 57.0795 23.2254C56.5675 23.0441 56.0395 22.7561 55.4955 22.3614L55.1755 23.3214H54.7915L54.5515 19.2414ZM68.4249 20.6814C68.4249 21.1294 68.4355 21.4814 68.4569 21.7374C68.4782 21.9934 68.5369 22.1908 68.6329 22.3294C68.7289 22.4574 68.8675 22.5428 69.0489 22.5854C69.2302 22.6281 69.4809 22.6601 69.8009 22.6814V23.3214H64.7449V22.6814C65.0649 22.6601 65.3209 22.6281 65.5129 22.5854C65.7049 22.5428 65.8489 22.4574 65.9449 22.3294C66.0409 22.2014 66.1049 22.0201 66.1369 21.7854C66.1689 21.5401 66.1849 21.2148 66.1849 20.8094V18.8254C66.1849 18.2174 66.1742 17.7108 66.1529 17.3054C66.1422 16.9001 66.1155 16.6228 66.0729 16.4734C66.0409 16.3348 65.9982 16.2281 65.9449 16.1534C65.9022 16.0681 65.8275 16.0041 65.7209 15.9614C65.6249 15.9081 65.4969 15.8761 65.3369 15.8654C65.1769 15.8441 64.9689 15.8334 64.7129 15.8334V15.2894L67.8009 14.6814L67.9929 16.0734H68.0889C68.5369 15.5721 68.9849 15.2148 69.4329 15.0014C69.8915 14.7881 70.4195 14.6814 71.0169 14.6814C71.7209 14.6814 72.3022 14.8041 72.7609 15.0494C73.2195 15.2948 73.5662 15.6468 73.8009 16.1054H73.8649C74.2489 15.6574 74.7075 15.3108 75.2409 15.0654C75.7742 14.8094 76.3449 14.6814 76.9529 14.6814C77.5929 14.6814 78.1475 14.7614 78.6169 14.9214C79.0969 15.0814 79.4702 15.3108 79.7369 15.6094C79.9502 15.8548 80.1049 16.1748 80.2009 16.5694C80.3075 16.9641 80.3609 17.5134 80.3609 18.2174V20.6814C80.3609 21.1188 80.3715 21.4654 80.3929 21.7214C80.4249 21.9774 80.4889 22.1748 80.5849 22.3134C80.6809 22.4521 80.8195 22.5428 81.0009 22.5854C81.1822 22.6281 81.4329 22.6601 81.7529 22.6814V23.3214H76.6969V22.6814C77.0169 22.6708 77.2675 22.6441 77.4489 22.6014C77.6409 22.5481 77.7849 22.4574 77.8809 22.3294C77.9875 22.1908 78.0515 22.0041 78.0729 21.7694C78.1049 21.5348 78.1209 21.2148 78.1209 20.8094V18.7134C78.1209 18.1588 78.0889 17.6894 78.0249 17.3054C77.9609 16.9214 77.8595 16.6121 77.7209 16.3774C77.5822 16.1428 77.3955 15.9774 77.1609 15.8814C76.9369 15.7748 76.6595 15.7214 76.3289 15.7214C75.9555 15.7214 75.6462 15.8121 75.4009 15.9934C75.1662 16.1748 74.9689 16.4094 74.8089 16.6974C74.5315 17.1988 74.3929 17.8228 74.3929 18.5694V20.6814C74.3929 21.1188 74.4035 21.4654 74.4249 21.7214C74.4462 21.9774 74.5049 22.1748 74.6009 22.3134C74.6969 22.4521 74.8355 22.5428 75.0169 22.5854C75.2089 22.6281 75.4702 22.6601 75.8009 22.6814V23.3214H70.7289V22.6814C71.0489 22.6601 71.2995 22.6281 71.4809 22.5854C71.6729 22.5428 71.8169 22.4574 71.9129 22.3294C72.0195 22.2014 72.0835 22.0201 72.1049 21.7854C72.1369 21.5401 72.1529 21.2148 72.1529 20.8094V18.7134C72.1529 18.1588 72.1209 17.6894 72.0569 17.3054C71.9929 16.9214 71.8862 16.6121 71.7369 16.3774C71.5982 16.1428 71.4115 15.9774 71.1769 15.8814C70.9422 15.7748 70.6489 15.7214 70.2969 15.7214C69.9449 15.7214 69.6515 15.8068 69.4169 15.9774C69.1929 16.1481 69.0062 16.3774 68.8569 16.6654C68.7182 16.9214 68.6115 17.2148 68.5369 17.5454C68.4622 17.8761 68.4249 18.2174 68.4249 18.5694V20.6814ZM87.504 18.7614C86.608 19.1668 85.9307 19.5454 85.472 19.8974C85.024 20.2388 84.8 20.5961 84.8 20.9694C84.8 21.2788 84.8853 21.5241 85.056 21.7054C85.2267 21.8868 85.44 21.9774 85.696 21.9774C85.952 21.9774 86.192 21.9348 86.416 21.8494C86.64 21.7534 86.832 21.6308 86.992 21.4814C87.152 21.3321 87.2747 21.1561 87.36 20.9534C87.456 20.7401 87.504 20.5161 87.504 20.2814V18.7614ZM87.504 17.9134V17.2414C87.504 16.6228 87.392 16.1748 87.168 15.8974C86.9547 15.6094 86.6187 15.4654 86.16 15.4654C85.8507 15.4654 85.616 15.5508 85.456 15.7214C85.296 15.8814 85.1467 16.1534 85.008 16.5374C84.912 16.8041 84.7733 17.0121 84.592 17.1614C84.4213 17.3108 84.1813 17.3854 83.872 17.3854C83.5733 17.3854 83.344 17.2948 83.184 17.1134C83.024 16.9321 82.944 16.6761 82.944 16.3454C82.944 15.8334 83.2213 15.4281 83.776 15.1294C84.3413 14.8308 85.1893 14.6814 86.32 14.6814C87.5147 14.6814 88.368 14.9001 88.88 15.3374C89.392 15.7641 89.648 16.4841 89.648 17.4974V21.0014C89.648 21.9081 89.8293 22.3614 90.192 22.3614C90.3947 22.3614 90.5813 22.2921 90.752 22.1534L90.992 22.6174C90.8427 22.8841 90.608 23.0974 90.288 23.2574C89.9787 23.4068 89.6267 23.4814 89.232 23.4814C88.7413 23.4814 88.368 23.3321 88.112 23.0334C87.856 22.7348 87.728 22.3134 87.728 21.7694H87.648C87.3387 22.3241 86.9387 22.7454 86.448 23.0334C85.9573 23.3214 85.3973 23.4654 84.768 23.4654C84.096 23.4654 83.5573 23.2788 83.152 22.9054C82.7467 22.5214 82.544 22.0254 82.544 21.4174C82.544 20.9481 82.752 20.5108 83.168 20.1054C83.584 19.6894 84.2773 19.2841 85.248 18.8894L87.504 17.9134ZM95.3155 20.8414C95.3155 21.2574 95.3315 21.5881 95.3635 21.8334C95.4062 22.0681 95.4862 22.2494 95.6035 22.3774C95.7208 22.5054 95.8915 22.5908 96.1155 22.6334C96.3395 22.6654 96.6382 22.6814 97.0115 22.6814V23.3214H91.6675V22.6814C91.9875 22.6601 92.2435 22.6281 92.4355 22.5854C92.6275 22.5428 92.7715 22.4574 92.8675 22.3294C92.9635 22.2014 93.0222 22.0201 93.0435 21.7854C93.0755 21.5401 93.0915 21.2148 93.0915 20.8094V18.8574C93.0915 18.1961 93.0755 17.6681 93.0435 17.2734C93.0115 16.8788 92.9422 16.5748 92.8355 16.3614C92.7288 16.1481 92.5742 16.0094 92.3715 15.9454C92.1795 15.8708 91.9235 15.8334 91.6035 15.8334V15.2734L94.8035 14.6814L95.0595 16.5214H95.1235C95.4115 15.9561 95.7902 15.5081 96.2595 15.1774C96.7288 14.8468 97.2248 14.6814 97.7475 14.6814C98.1528 14.6814 98.4835 14.7828 98.7395 14.9854C98.9955 15.1881 99.1235 15.4441 99.1235 15.7534C99.1235 16.0948 99.0222 16.3828 98.8195 16.6174C98.6275 16.8521 98.3608 16.9694 98.0195 16.9694C97.8595 16.9694 97.7155 16.9374 97.5875 16.8734C97.4595 16.8094 97.3422 16.7401 97.2355 16.6654C97.1395 16.5801 97.0382 16.5054 96.9315 16.4414C96.8355 16.3668 96.7342 16.3294 96.6275 16.3294C96.4248 16.3294 96.2328 16.4628 96.0515 16.7294C95.8702 16.9961 95.7208 17.3534 95.6035 17.8014C95.5182 18.1214 95.4488 18.4841 95.3955 18.8894C95.3422 19.2841 95.3155 19.6788 95.3155 20.0734V20.8414ZM99.5563 15.7214V15.0014C100.196 14.8201 100.73 14.5481 101.156 14.1854C101.594 13.8121 101.919 13.3854 102.132 12.9054H102.948V14.8414H104.788V15.7214H102.948V20.6334C102.948 21.2948 103.018 21.7641 103.156 22.0414C103.306 22.3188 103.551 22.4574 103.892 22.4574C104.308 22.4574 104.623 22.2654 104.836 21.8814L105.172 22.3454C104.874 23.1028 104.17 23.4814 103.06 23.4814C102.324 23.4814 101.748 23.3108 101.332 22.9694C100.927 22.6281 100.724 22.1481 100.724 21.5294V15.7214H99.5563ZM121.628 18.3614C121.628 19.2681 121.526 20.0468 121.324 20.6974C121.132 21.3374 120.828 21.8654 120.412 22.2814C119.996 22.6974 119.457 23.0014 118.796 23.1934C118.145 23.3854 117.361 23.4814 116.444 23.4814C114.726 23.4814 113.468 23.1241 112.668 22.4094C111.878 21.6841 111.484 20.5321 111.484 18.9534V14.5694C111.484 14.1534 111.478 13.8068 111.468 13.5294C111.457 13.2414 111.441 13.0014 111.42 12.8094C111.398 12.6174 111.366 12.4628 111.324 12.3454C111.292 12.2174 111.249 12.1108 111.196 12.0254C111.1 11.8761 110.961 11.7748 110.78 11.7214C110.598 11.6681 110.321 11.6414 109.948 11.6414V11.0014H115.692V11.6414C115.244 11.6414 114.913 11.6681 114.7 11.7214C114.486 11.7641 114.321 11.8548 114.204 11.9934C114.129 12.0788 114.065 12.1854 114.012 12.3134C113.969 12.4308 113.932 12.5908 113.9 12.7934C113.878 12.9854 113.862 13.2254 113.852 13.5134C113.841 13.8014 113.836 14.1534 113.836 14.5694V18.7614C113.836 19.9774 114.092 20.8788 114.604 21.4654C115.126 22.0414 115.926 22.3294 117.004 22.3294C119.201 22.3294 120.3 21.1081 120.3 18.6654V14.9694C120.3 14.5214 120.289 14.1374 120.268 13.8174C120.257 13.4974 120.23 13.2254 120.188 13.0014C120.156 12.7774 120.108 12.5908 120.044 12.4414C119.99 12.2921 119.921 12.1694 119.836 12.0734C119.686 11.9241 119.494 11.8174 119.26 11.7534C119.025 11.6788 118.7 11.6414 118.284 11.6414V11.0014H123.468V11.6414C123.073 11.6414 122.769 11.6734 122.556 11.7374C122.342 11.7908 122.177 11.8921 122.06 12.0414C121.974 12.1374 121.905 12.2654 121.852 12.4254C121.798 12.5748 121.756 12.7668 121.724 13.0014C121.692 13.2254 121.665 13.4974 121.644 13.8174C121.633 14.1374 121.628 14.5214 121.628 14.9694V18.3614ZM126.644 15.8814H126.708C127.412 15.0814 128.33 14.6814 129.46 14.6814C130.079 14.6814 130.644 14.7934 131.156 15.0174C131.679 15.2308 132.127 15.5348 132.5 15.9294C132.884 16.3134 133.178 16.7774 133.38 17.3214C133.594 17.8548 133.7 18.4414 133.7 19.0814C133.7 19.7214 133.594 20.3081 133.38 20.8414C133.178 21.3748 132.89 21.8388 132.516 22.2334C132.143 22.6281 131.695 22.9374 131.172 23.1614C130.66 23.3748 130.1 23.4814 129.492 23.4814C128.458 23.4814 127.668 23.1294 127.124 22.4254H127.06V24.6494C127.06 25.0761 127.082 25.4174 127.124 25.6734C127.167 25.9294 127.258 26.1268 127.396 26.2654C127.535 26.4041 127.727 26.5001 127.972 26.5534C128.228 26.6068 128.564 26.6388 128.98 26.6494V27.3214H123.46V26.6494C123.748 26.6388 123.983 26.6068 124.164 26.5534C124.346 26.5001 124.484 26.4041 124.58 26.2654C124.687 26.1268 124.756 25.9348 124.788 25.6894C124.831 25.4548 124.852 25.1454 124.852 24.7614V18.8094C124.852 18.3188 124.842 17.8548 124.82 17.4174C124.799 16.9694 124.772 16.6548 124.74 16.4734C124.687 16.2281 124.564 16.0574 124.372 15.9614C124.191 15.8654 123.876 15.8174 123.428 15.8174V15.1934L126.644 14.7454V15.8814ZM129.364 15.5934C129.023 15.5934 128.698 15.6681 128.388 15.8174C128.079 15.9668 127.834 16.1641 127.652 16.4094C127.471 16.6548 127.332 16.9641 127.236 17.3374C127.14 17.7001 127.092 18.0948 127.092 18.5214V19.6094C127.092 20.3668 127.279 21.0121 127.652 21.5454C128.058 22.1321 128.628 22.4254 129.364 22.4254C130.015 22.4254 130.495 22.1588 130.804 21.6254C131.124 21.0814 131.284 20.2441 131.284 19.1134C131.284 16.7668 130.644 15.5934 129.364 15.5934Z" fill="#111111"/>
<rect y="0.321426" width="32" height="33.1429" rx="5" fill="#111111"/>
<path d="M11.928 19.5614H12.52C12.5947 20.0414 12.7333 20.4734 12.936 20.8574C13.1493 21.2414 13.4107 21.5668 13.72 21.8334C14.04 22.1001 14.4027 22.3081 14.808 22.4574C15.224 22.5961 15.672 22.6654 16.152 22.6654C16.9413 22.6654 17.5653 22.4788 18.024 22.1054C18.4827 21.7321 18.712 21.2254 18.712 20.5854C18.712 20.3188 18.664 20.0734 18.568 19.8494C18.4827 19.6254 18.3333 19.4121 18.12 19.2094C17.9067 18.9961 17.6187 18.7881 17.256 18.5854C16.904 18.3828 16.456 18.1641 15.912 17.9294C15.2507 17.6414 14.696 17.3641 14.248 17.0974C13.8 16.8308 13.4427 16.5534 13.176 16.2654C12.9093 15.9774 12.7173 15.6734 12.6 15.3534C12.4933 15.0228 12.44 14.6494 12.44 14.2334C12.44 13.7428 12.5253 13.2894 12.696 12.8734C12.8773 12.4574 13.128 12.1001 13.448 11.8014C13.768 11.4921 14.1467 11.2574 14.584 11.0974C15.0213 10.9268 15.5013 10.8414 16.024 10.8414C16.4933 10.8414 16.9307 10.9161 17.336 11.0654C17.7413 11.2148 18.152 11.4548 18.568 11.7854L18.984 11.0654H19.352L19.528 14.2494H18.936C18.68 13.3748 18.3067 12.7241 17.816 12.2974C17.336 11.8708 16.7547 11.6574 16.072 11.6574C15.4213 11.6574 14.904 11.8174 14.52 12.1374C14.136 12.4574 13.944 12.8894 13.944 13.4334C13.944 13.6894 13.9867 13.9241 14.072 14.1374C14.1573 14.3401 14.296 14.5374 14.488 14.7294C14.68 14.9108 14.9307 15.0974 15.24 15.2894C15.5493 15.4708 15.9333 15.6628 16.392 15.8654C17.1813 16.2174 17.8373 16.5481 18.36 16.8574C18.8827 17.1561 19.2987 17.4601 19.608 17.7694C19.9173 18.0681 20.136 18.3881 20.264 18.7294C20.392 19.0601 20.456 19.4334 20.456 19.8494C20.456 20.3828 20.3493 20.8734 20.136 21.3214C19.9227 21.7694 19.624 22.1534 19.24 22.4734C18.856 22.7934 18.3973 23.0441 17.864 23.2254C17.3307 23.3961 16.744 23.4814 16.104 23.4814C15.496 23.4814 14.9467 23.3961 14.456 23.2254C13.976 23.0548 13.4853 22.7668 12.984 22.3614L12.536 23.1454H12.168L11.928 19.5614Z" fill="white"/>
</svg>
