<svg width="134" height="32" viewBox="0 0 134 32" fill="none" xmlns="http://www.w3.org/2000/svg">
<path d="M54.0515 16.92H54.6755C54.8248 17.9333 55.2302 18.7333 55.8915 19.32C56.5528 19.896 57.3688 20.184 58.3395 20.184C58.7342 20.184 59.0968 20.136 59.4275 20.04C59.7582 19.944 60.0408 19.8107 60.2755 19.64C60.5102 19.4587 60.6915 19.2507 60.8195 19.016C60.9475 18.7707 61.0115 18.4987 61.0115 18.2C61.0115 17.944 60.9688 17.7253 60.8835 17.544C60.8088 17.352 60.6595 17.1707 60.4355 17C60.2115 16.8187 59.9022 16.6373 59.5075 16.456C59.1235 16.2747 58.6222 16.0667 58.0035 15.832C56.7555 15.352 55.8328 14.7973 55.2355 14.168C54.6382 13.528 54.3395 12.776 54.3395 11.912C54.3395 11.4107 54.4355 10.952 54.6275 10.536C54.8195 10.12 55.0862 9.76267 55.4275 9.464C55.7795 9.16533 56.1955 8.936 56.6755 8.776C57.1662 8.60533 57.7048 8.52 58.2915 8.52C58.8355 8.52 59.3475 8.60533 59.8275 8.776C60.3075 8.94667 60.7822 9.20267 61.2515 9.544L61.5395 8.744H61.9235L62.0995 12.2H61.4755C61.2195 11.3253 60.8195 10.6587 60.2755 10.2C59.7315 9.73067 59.1022 9.496 58.3875 9.496C57.7262 9.496 57.1875 9.66133 56.7715 9.992C56.3662 10.312 56.1635 10.728 56.1635 11.24C56.1635 11.464 56.2008 11.6667 56.2755 11.848C56.3502 12.0187 56.4888 12.184 56.6915 12.344C56.8942 12.504 57.1715 12.6693 57.5235 12.84C57.8755 13 58.3288 13.1813 58.8835 13.384C59.6302 13.672 60.2648 13.9653 60.7875 14.264C61.3208 14.552 61.7528 14.8667 62.0835 15.208C62.4248 15.5387 62.6755 15.8907 62.8355 16.264C62.9955 16.6373 63.0755 17.048 63.0755 17.496C63.0755 18.04 62.9582 18.536 62.7235 18.984C62.4888 19.432 62.1582 19.816 61.7315 20.136C61.3155 20.456 60.8142 20.7067 60.2275 20.888C59.6515 21.0693 59.0115 21.16 58.3075 21.16C57.6675 21.16 57.0915 21.0747 56.5795 20.904C56.0675 20.7227 55.5395 20.4347 54.9955 20.04L54.6755 21H54.2915L54.0515 16.92ZM67.9249 18.36C67.9249 18.808 67.9355 19.16 67.9569 19.416C67.9782 19.672 68.0369 19.8693 68.1329 20.008C68.2289 20.136 68.3675 20.2213 68.5489 20.264C68.7302 20.3067 68.9809 20.3387 69.3009 20.36V21H64.2449V20.36C64.5649 20.3387 64.8209 20.3067 65.0129 20.264C65.2049 20.2213 65.3489 20.136 65.4449 20.008C65.5409 19.88 65.6049 19.6987 65.6369 19.464C65.6689 19.2187 65.6849 18.8933 65.6849 18.488V16.504C65.6849 15.896 65.6742 15.3893 65.6529 14.984C65.6422 14.5787 65.6155 14.3013 65.5729 14.152C65.5409 14.0133 65.4982 13.9067 65.4449 13.832C65.4022 13.7467 65.3275 13.6827 65.2209 13.64C65.1249 13.5867 64.9969 13.5547 64.8369 13.544C64.6769 13.5227 64.4689 13.512 64.2129 13.512V12.968L67.3009 12.36L67.4929 13.752H67.5889C68.0369 13.2507 68.4849 12.8933 68.9329 12.68C69.3915 12.4667 69.9195 12.36 70.5169 12.36C71.2209 12.36 71.8022 12.4827 72.2609 12.728C72.7195 12.9733 73.0662 13.3253 73.3009 13.784H73.3649C73.7489 13.336 74.2075 12.9893 74.7409 12.744C75.2742 12.488 75.8449 12.36 76.4529 12.36C77.0929 12.36 77.6475 12.44 78.1169 12.6C78.5969 12.76 78.9702 12.9893 79.2369 13.288C79.4502 13.5333 79.6049 13.8533 79.7009 14.248C79.8075 14.6427 79.8609 15.192 79.8609 15.896V18.36C79.8609 18.7973 79.8715 19.144 79.8929 19.4C79.9249 19.656 79.9889 19.8533 80.0849 19.992C80.1809 20.1307 80.3195 20.2213 80.5009 20.264C80.6822 20.3067 80.9329 20.3387 81.2529 20.36V21H76.1969V20.36C76.5169 20.3493 76.7675 20.3227 76.9489 20.28C77.1409 20.2267 77.2849 20.136 77.3809 20.008C77.4875 19.8693 77.5515 19.6827 77.5729 19.448C77.6049 19.2133 77.6209 18.8933 77.6209 18.488V16.392C77.6209 15.8373 77.5889 15.368 77.5249 14.984C77.4609 14.6 77.3595 14.2907 77.2209 14.056C77.0822 13.8213 76.8955 13.656 76.6609 13.56C76.4369 13.4533 76.1595 13.4 75.8289 13.4C75.4555 13.4 75.1462 13.4907 74.9009 13.672C74.6662 13.8533 74.4689 14.088 74.3089 14.376C74.0315 14.8773 73.8929 15.5013 73.8929 16.248V18.36C73.8929 18.7973 73.9035 19.144 73.9249 19.4C73.9462 19.656 74.0049 19.8533 74.1009 19.992C74.1969 20.1307 74.3355 20.2213 74.5169 20.264C74.7089 20.3067 74.9702 20.3387 75.3009 20.36V21H70.2289V20.36C70.5489 20.3387 70.7995 20.3067 70.9809 20.264C71.1729 20.2213 71.3169 20.136 71.4129 20.008C71.5195 19.88 71.5835 19.6987 71.6049 19.464C71.6369 19.2187 71.6529 18.8933 71.6529 18.488V16.392C71.6529 15.8373 71.6209 15.368 71.5569 14.984C71.4929 14.6 71.3862 14.2907 71.2369 14.056C71.0982 13.8213 70.9115 13.656 70.6769 13.56C70.4422 13.4533 70.1489 13.4 69.7969 13.4C69.4449 13.4 69.1515 13.4853 68.9169 13.656C68.6929 13.8267 68.5062 14.056 68.3569 14.344C68.2182 14.6 68.1115 14.8933 68.0369 15.224C67.9622 15.5547 67.9249 15.896 67.9249 16.248V18.36ZM87.004 16.44C86.108 16.8453 85.4307 17.224 84.972 17.576C84.524 17.9173 84.3 18.2747 84.3 18.648C84.3 18.9573 84.3853 19.2027 84.556 19.384C84.7267 19.5653 84.94 19.656 85.196 19.656C85.452 19.656 85.692 19.6133 85.916 19.528C86.14 19.432 86.332 19.3093 86.492 19.16C86.652 19.0107 86.7747 18.8347 86.86 18.632C86.956 18.4187 87.004 18.1947 87.004 17.96V16.44ZM87.004 15.592V14.92C87.004 14.3013 86.892 13.8533 86.668 13.576C86.4547 13.288 86.1187 13.144 85.66 13.144C85.3507 13.144 85.116 13.2293 84.956 13.4C84.796 13.56 84.6467 13.832 84.508 14.216C84.412 14.4827 84.2733 14.6907 84.092 14.84C83.9213 14.9893 83.6813 15.064 83.372 15.064C83.0733 15.064 82.844 14.9733 82.684 14.792C82.524 14.6107 82.444 14.3547 82.444 14.024C82.444 13.512 82.7213 13.1067 83.276 12.808C83.8413 12.5093 84.6893 12.36 85.82 12.36C87.0147 12.36 87.868 12.5787 88.38 13.016C88.892 13.4427 89.148 14.1627 89.148 15.176V18.68C89.148 19.5867 89.3293 20.04 89.692 20.04C89.8947 20.04 90.0813 19.9707 90.252 19.832L90.492 20.296C90.3427 20.5627 90.108 20.776 89.788 20.936C89.4787 21.0853 89.1267 21.16 88.732 21.16C88.2413 21.16 87.868 21.0107 87.612 20.712C87.356 20.4133 87.228 19.992 87.228 19.448H87.148C86.8387 20.0027 86.4387 20.424 85.948 20.712C85.4573 21 84.8973 21.144 84.268 21.144C83.596 21.144 83.0573 20.9573 82.652 20.584C82.2467 20.2 82.044 19.704 82.044 19.096C82.044 18.6267 82.252 18.1893 82.668 17.784C83.084 17.368 83.7773 16.9627 84.748 16.568L87.004 15.592ZM94.8155 18.52C94.8155 18.936 94.8315 19.2667 94.8635 19.512C94.9062 19.7467 94.9862 19.928 95.1035 20.056C95.2208 20.184 95.3915 20.2693 95.6155 20.312C95.8395 20.344 96.1382 20.36 96.5115 20.36V21H91.1675V20.36C91.4875 20.3387 91.7435 20.3067 91.9355 20.264C92.1275 20.2213 92.2715 20.136 92.3675 20.008C92.4635 19.88 92.5222 19.6987 92.5435 19.464C92.5755 19.2187 92.5915 18.8933 92.5915 18.488V16.536C92.5915 15.8747 92.5755 15.3467 92.5435 14.952C92.5115 14.5573 92.4422 14.2533 92.3355 14.04C92.2288 13.8267 92.0742 13.688 91.8715 13.624C91.6795 13.5493 91.4235 13.512 91.1035 13.512V12.952L94.3035 12.36L94.5595 14.2H94.6235C94.9115 13.6347 95.2902 13.1867 95.7595 12.856C96.2288 12.5253 96.7248 12.36 97.2475 12.36C97.6528 12.36 97.9835 12.4613 98.2395 12.664C98.4955 12.8667 98.6235 13.1227 98.6235 13.432C98.6235 13.7733 98.5222 14.0613 98.3195 14.296C98.1275 14.5307 97.8608 14.648 97.5195 14.648C97.3595 14.648 97.2155 14.616 97.0875 14.552C96.9595 14.488 96.8422 14.4187 96.7355 14.344C96.6395 14.2587 96.5382 14.184 96.4315 14.12C96.3355 14.0453 96.2342 14.008 96.1275 14.008C95.9248 14.008 95.7328 14.1413 95.5515 14.408C95.3702 14.6747 95.2208 15.032 95.1035 15.48C95.0182 15.8 94.9488 16.1627 94.8955 16.568C94.8422 16.9627 94.8155 17.3573 94.8155 17.752V18.52ZM99.0563 13.4V12.68C99.6963 12.4987 100.23 12.2267 100.656 11.864C101.094 11.4907 101.419 11.064 101.632 10.584H102.448V12.52H104.288V13.4H102.448V18.312C102.448 18.9733 102.518 19.4427 102.656 19.72C102.806 19.9973 103.051 20.136 103.392 20.136C103.808 20.136 104.123 19.944 104.336 19.56L104.672 20.024C104.374 20.7813 103.67 21.16 102.56 21.16C101.824 21.16 101.248 20.9893 100.832 20.648C100.427 20.3067 100.224 19.8267 100.224 19.208V13.4H99.0563ZM121.128 16.04C121.128 16.9467 121.026 17.7253 120.824 18.376C120.632 19.016 120.328 19.544 119.912 19.96C119.496 20.376 118.957 20.68 118.296 20.872C117.645 21.064 116.861 21.16 115.944 21.16C114.226 21.16 112.968 20.8027 112.168 20.088C111.378 19.3627 110.984 18.2107 110.984 16.632V12.248C110.984 11.832 110.978 11.4853 110.968 11.208C110.957 10.92 110.941 10.68 110.92 10.488C110.898 10.296 110.866 10.1413 110.824 10.024C110.792 9.896 110.749 9.78933 110.696 9.704C110.6 9.55467 110.461 9.45333 110.28 9.4C110.098 9.34667 109.821 9.32 109.448 9.32V8.68H115.192V9.32C114.744 9.32 114.413 9.34667 114.2 9.4C113.986 9.44267 113.821 9.53333 113.704 9.672C113.629 9.75733 113.565 9.864 113.512 9.992C113.469 10.1093 113.432 10.2693 113.4 10.472C113.378 10.664 113.362 10.904 113.352 11.192C113.341 11.48 113.336 11.832 113.336 12.248V16.44C113.336 17.656 113.592 18.5573 114.104 19.144C114.626 19.72 115.426 20.008 116.504 20.008C118.701 20.008 119.8 18.7867 119.8 16.344V12.648C119.8 12.2 119.789 11.816 119.768 11.496C119.757 11.176 119.73 10.904 119.688 10.68C119.656 10.456 119.608 10.2693 119.544 10.12C119.49 9.97067 119.421 9.848 119.336 9.752C119.186 9.60267 118.994 9.496 118.76 9.432C118.525 9.35733 118.2 9.32 117.784 9.32V8.68H122.968V9.32C122.573 9.32 122.269 9.352 122.056 9.416C121.842 9.46933 121.677 9.57067 121.56 9.72C121.474 9.816 121.405 9.944 121.352 10.104C121.298 10.2533 121.256 10.4453 121.224 10.68C121.192 10.904 121.165 11.176 121.144 11.496C121.133 11.816 121.128 12.2 121.128 12.648V16.04ZM126.144 13.56H126.208C126.912 12.76 127.83 12.36 128.96 12.36C129.579 12.36 130.144 12.472 130.656 12.696C131.179 12.9093 131.627 13.2133 132 13.608C132.384 13.992 132.678 14.456 132.88 15C133.094 15.5333 133.2 16.12 133.2 16.76C133.2 17.4 133.094 17.9867 132.88 18.52C132.678 19.0533 132.39 19.5173 132.016 19.912C131.643 20.3067 131.195 20.616 130.672 20.84C130.16 21.0533 129.6 21.16 128.992 21.16C127.958 21.16 127.168 20.808 126.624 20.104H126.56V22.328C126.56 22.7547 126.582 23.096 126.624 23.352C126.667 23.608 126.758 23.8053 126.896 23.944C127.035 24.0827 127.227 24.1787 127.472 24.232C127.728 24.2853 128.064 24.3173 128.48 24.328V25H122.96V24.328C123.248 24.3173 123.483 24.2853 123.664 24.232C123.846 24.1787 123.984 24.0827 124.08 23.944C124.187 23.8053 124.256 23.6133 124.288 23.368C124.331 23.1333 124.352 22.824 124.352 22.44V16.488C124.352 15.9973 124.342 15.5333 124.32 15.096C124.299 14.648 124.272 14.3333 124.24 14.152C124.187 13.9067 124.064 13.736 123.872 13.64C123.691 13.544 123.376 13.496 122.928 13.496V12.872L126.144 12.424V13.56ZM128.864 13.272C128.523 13.272 128.198 13.3467 127.888 13.496C127.579 13.6453 127.334 13.8427 127.152 14.088C126.971 14.3333 126.832 14.6427 126.736 15.016C126.64 15.3787 126.592 15.7733 126.592 16.2V17.288C126.592 18.0453 126.779 18.6907 127.152 19.224C127.558 19.8107 128.128 20.104 128.864 20.104C129.515 20.104 129.995 19.8373 130.304 19.304C130.624 18.76 130.784 17.9227 130.784 16.792C130.784 14.4453 130.144 13.272 128.864 13.272Z" fill="white"/>
<rect width="32" height="32" rx="5" fill="#111111"/>
<path d="M12.168 21.824L11.928 18.24H12.52C12.6693 19.2 13.0693 19.9573 13.72 20.512C14.3813 21.0667 15.192 21.344 16.152 21.344C16.9307 21.344 17.5493 21.1573 18.008 20.784C18.4773 20.4 18.712 19.8933 18.712 19.264C18.712 18.72 18.5147 18.2613 18.12 17.888C17.7253 17.504 16.9893 17.0773 15.912 16.608C14.5893 16.0213 13.6773 15.4667 13.176 14.944C12.6853 14.4107 12.44 13.7333 12.44 12.912C12.44 11.92 12.776 11.1093 13.448 10.48C14.12 9.84 14.9787 9.52 16.024 9.52C16.92 9.52 17.768 9.83467 18.568 10.464L18.984 9.744H19.352L19.528 12.928H18.936C18.424 11.2 17.4693 10.336 16.072 10.336C15.4213 10.336 14.904 10.5013 14.52 10.832C14.136 11.152 13.944 11.5787 13.944 12.112C13.944 12.6133 14.12 13.0453 14.472 13.408C14.8347 13.76 15.4747 14.1387 16.392 14.544C17.9707 15.2587 19.0427 15.8933 19.608 16.448C20.1733 16.992 20.456 17.6853 20.456 18.528C20.456 19.6053 20.0507 20.48 19.24 21.152C18.44 21.824 17.3947 22.16 16.104 22.16C14.952 22.16 13.912 21.7867 12.984 21.04L12.536 21.824H12.168Z" fill="white"/>
</svg>
