<svg width="80" height="18" viewBox="0 0 80 18" fill="none" xmlns="http://www.w3.org/2000/svg">
<path d="M0.5515 9.24143H1.1755C1.32483 10.2548 1.73017 11.0548 2.3915 11.6414C3.05283 12.2174 3.86883 12.5054 4.8395 12.5054C5.23417 12.5054 5.59683 12.4574 5.9275 12.3614C6.25817 12.2654 6.54083 12.1321 6.7755 11.9614C7.01017 11.7801 7.1915 11.5721 7.3195 11.3374C7.4475 11.0921 7.5115 10.8201 7.5115 10.5214C7.5115 10.2654 7.46883 10.0468 7.3835 9.86543C7.30883 9.67343 7.1595 9.49209 6.9355 9.32143C6.7115 9.14009 6.40217 8.95876 6.0075 8.77743C5.6235 8.59609 5.12217 8.38809 4.5035 8.15343C3.2555 7.67343 2.33283 7.11876 1.7355 6.48943C1.13817 5.84943 0.8395 5.09743 0.8395 4.23343C0.8395 3.73209 0.9355 3.27343 1.1275 2.85743C1.3195 2.44143 1.58617 2.08409 1.9275 1.78543C2.2795 1.48676 2.6955 1.25743 3.1755 1.09743C3.66617 0.926759 4.20483 0.841426 4.7915 0.841426C5.3355 0.841426 5.8475 0.926759 6.3275 1.09743C6.8075 1.26809 7.28217 1.52409 7.7515 1.86543L8.0395 1.06543H8.4235L8.5995 4.52143H7.9755C7.7195 3.64676 7.3195 2.98009 6.7755 2.52143C6.2315 2.05209 5.60217 1.81743 4.8875 1.81743C4.22617 1.81743 3.6875 1.98276 3.2715 2.31343C2.86617 2.63343 2.6635 3.04943 2.6635 3.56143C2.6635 3.78543 2.70083 3.98809 2.7755 4.16943C2.85017 4.34009 2.98883 4.50543 3.1915 4.66543C3.39417 4.82543 3.6715 4.99076 4.0235 5.16143C4.3755 5.32143 4.82883 5.50276 5.3835 5.70543C6.13017 5.99343 6.76483 6.28676 7.2875 6.58543C7.82083 6.87343 8.25283 7.18809 8.5835 7.52943C8.92483 7.86009 9.1755 8.21209 9.3355 8.58543C9.4955 8.95876 9.5755 9.36943 9.5755 9.81743C9.5755 10.3614 9.45817 10.8574 9.2235 11.3054C8.98883 11.7534 8.65817 12.1374 8.2315 12.4574C7.8155 12.7774 7.31417 13.0281 6.7275 13.2094C6.1515 13.3908 5.5115 13.4814 4.8075 13.4814C4.1675 13.4814 3.5915 13.3961 3.0795 13.2254C2.5675 13.0441 2.0395 12.7561 1.4955 12.3614L1.1755 13.3214H0.7915L0.5515 9.24143ZM14.4249 10.6814C14.4249 11.1294 14.4355 11.4814 14.4569 11.7374C14.4782 11.9934 14.5369 12.1908 14.6329 12.3294C14.7289 12.4574 14.8675 12.5428 15.0489 12.5854C15.2302 12.6281 15.4809 12.6601 15.8009 12.6814V13.3214H10.7449V12.6814C11.0649 12.6601 11.3209 12.6281 11.5129 12.5854C11.7049 12.5428 11.8489 12.4574 11.9449 12.3294C12.0409 12.2014 12.1049 12.0201 12.1369 11.7854C12.1689 11.5401 12.1849 11.2148 12.1849 10.8094V8.82543C12.1849 8.21743 12.1742 7.71076 12.1529 7.30543C12.1422 6.90009 12.1155 6.62276 12.0729 6.47343C12.0409 6.33476 11.9982 6.22809 11.9449 6.15343C11.9022 6.06809 11.8275 6.00409 11.7209 5.96143C11.6249 5.90809 11.4969 5.87609 11.3369 5.86543C11.1769 5.84409 10.9689 5.83343 10.7129 5.83343V5.28943L13.8009 4.68143L13.9929 6.07343H14.0889C14.5369 5.57209 14.9849 5.21476 15.4329 5.00143C15.8915 4.78809 16.4195 4.68143 17.0169 4.68143C17.7209 4.68143 18.3022 4.80409 18.7609 5.04943C19.2195 5.29476 19.5662 5.64676 19.8009 6.10543H19.8649C20.2489 5.65743 20.7075 5.31076 21.2409 5.06543C21.7742 4.80943 22.3449 4.68143 22.9529 4.68143C23.5929 4.68143 24.1475 4.76143 24.6169 4.92143C25.0969 5.08143 25.4702 5.31076 25.7369 5.60943C25.9502 5.85476 26.1049 6.17476 26.2009 6.56943C26.3075 6.96409 26.3609 7.51343 26.3609 8.21743V10.6814C26.3609 11.1188 26.3715 11.4654 26.3929 11.7214C26.4249 11.9774 26.4889 12.1748 26.5849 12.3134C26.6809 12.4521 26.8195 12.5428 27.0009 12.5854C27.1822 12.6281 27.4329 12.6601 27.7529 12.6814V13.3214H22.6969V12.6814C23.0169 12.6708 23.2675 12.6441 23.4489 12.6014C23.6409 12.5481 23.7849 12.4574 23.8809 12.3294C23.9875 12.1908 24.0515 12.0041 24.0729 11.7694C24.1049 11.5348 24.1209 11.2148 24.1209 10.8094V8.71343C24.1209 8.15876 24.0889 7.68943 24.0249 7.30543C23.9609 6.92143 23.8595 6.61209 23.7209 6.37743C23.5822 6.14276 23.3955 5.97743 23.1609 5.88143C22.9369 5.77476 22.6595 5.72143 22.3289 5.72143C21.9555 5.72143 21.6462 5.81209 21.4009 5.99343C21.1662 6.17476 20.9689 6.40943 20.8089 6.69743C20.5315 7.19876 20.3929 7.82276 20.3929 8.56943V10.6814C20.3929 11.1188 20.4035 11.4654 20.4249 11.7214C20.4462 11.9774 20.5049 12.1748 20.6009 12.3134C20.6969 12.4521 20.8355 12.5428 21.0169 12.5854C21.2089 12.6281 21.4702 12.6601 21.8009 12.6814V13.3214H16.7289V12.6814C17.0489 12.6601 17.2995 12.6281 17.4809 12.5854C17.6729 12.5428 17.8169 12.4574 17.9129 12.3294C18.0195 12.2014 18.0835 12.0201 18.1049 11.7854C18.1369 11.5401 18.1529 11.2148 18.1529 10.8094V8.71343C18.1529 8.15876 18.1209 7.68943 18.0569 7.30543C17.9929 6.92143 17.8862 6.61209 17.7369 6.37743C17.5982 6.14276 17.4115 5.97743 17.1769 5.88143C16.9422 5.77476 16.6489 5.72143 16.2969 5.72143C15.9449 5.72143 15.6515 5.80676 15.4169 5.97743C15.1929 6.14809 15.0062 6.37743 14.8569 6.66543C14.7182 6.92143 14.6115 7.21476 14.5369 7.54543C14.4622 7.87609 14.4249 8.21743 14.4249 8.56943V10.6814ZM33.504 8.76143C32.608 9.16676 31.9307 9.54543 31.472 9.89743C31.024 10.2388 30.8 10.5961 30.8 10.9694C30.8 11.2788 30.8853 11.5241 31.056 11.7054C31.2267 11.8868 31.44 11.9774 31.696 11.9774C31.952 11.9774 32.192 11.9348 32.416 11.8494C32.64 11.7534 32.832 11.6308 32.992 11.4814C33.152 11.3321 33.2747 11.1561 33.36 10.9534C33.456 10.7401 33.504 10.5161 33.504 10.2814V8.76143ZM33.504 7.91343V7.24143C33.504 6.62276 33.392 6.17476 33.168 5.89743C32.9547 5.60943 32.6187 5.46543 32.16 5.46543C31.8507 5.46543 31.616 5.55076 31.456 5.72143C31.296 5.88143 31.1467 6.15343 31.008 6.53743C30.912 6.80409 30.7733 7.01209 30.592 7.16143C30.4213 7.31076 30.1813 7.38543 29.872 7.38543C29.5733 7.38543 29.344 7.29476 29.184 7.11343C29.024 6.93209 28.944 6.67609 28.944 6.34543C28.944 5.83343 29.2213 5.42809 29.776 5.12943C30.3413 4.83076 31.1893 4.68143 32.32 4.68143C33.5147 4.68143 34.368 4.90009 34.88 5.33743C35.392 5.76409 35.648 6.48409 35.648 7.49743V11.0014C35.648 11.9081 35.8293 12.3614 36.192 12.3614C36.3947 12.3614 36.5813 12.2921 36.752 12.1534L36.992 12.6174C36.8427 12.8841 36.608 13.0974 36.288 13.2574C35.9787 13.4068 35.6267 13.4814 35.232 13.4814C34.7413 13.4814 34.368 13.3321 34.112 13.0334C33.856 12.7348 33.728 12.3134 33.728 11.7694H33.648C33.3387 12.3241 32.9387 12.7454 32.448 13.0334C31.9573 13.3214 31.3973 13.4654 30.768 13.4654C30.096 13.4654 29.5573 13.2788 29.152 12.9054C28.7467 12.5214 28.544 12.0254 28.544 11.4174C28.544 10.9481 28.752 10.5108 29.168 10.1054C29.584 9.68943 30.2773 9.28409 31.248 8.88943L33.504 7.91343ZM41.3155 10.8414C41.3155 11.2574 41.3315 11.5881 41.3635 11.8334C41.4062 12.0681 41.4862 12.2494 41.6035 12.3774C41.7208 12.5054 41.8915 12.5908 42.1155 12.6334C42.3395 12.6654 42.6382 12.6814 43.0115 12.6814V13.3214H37.6675V12.6814C37.9875 12.6601 38.2435 12.6281 38.4355 12.5854C38.6275 12.5428 38.7715 12.4574 38.8675 12.3294C38.9635 12.2014 39.0222 12.0201 39.0435 11.7854C39.0755 11.5401 39.0915 11.2148 39.0915 10.8094V8.85743C39.0915 8.19609 39.0755 7.66809 39.0435 7.27343C39.0115 6.87876 38.9422 6.57476 38.8355 6.36143C38.7288 6.14809 38.5742 6.00943 38.3715 5.94543C38.1795 5.87076 37.9235 5.83343 37.6035 5.83343V5.27343L40.8035 4.68143L41.0595 6.52143H41.1235C41.4115 5.95609 41.7902 5.50809 42.2595 5.17743C42.7288 4.84676 43.2248 4.68143 43.7475 4.68143C44.1528 4.68143 44.4835 4.78276 44.7395 4.98543C44.9955 5.18809 45.1235 5.44409 45.1235 5.75343C45.1235 6.09476 45.0222 6.38276 44.8195 6.61743C44.6275 6.85209 44.3608 6.96943 44.0195 6.96943C43.8595 6.96943 43.7155 6.93743 43.5875 6.87343C43.4595 6.80943 43.3422 6.74009 43.2355 6.66543C43.1395 6.58009 43.0382 6.50543 42.9315 6.44143C42.8355 6.36676 42.7342 6.32943 42.6275 6.32943C42.4248 6.32943 42.2328 6.46276 42.0515 6.72943C41.8702 6.99609 41.7208 7.35343 41.6035 7.80143C41.5182 8.12143 41.4488 8.48409 41.3955 8.88943C41.3422 9.28409 41.3155 9.67876 41.3155 10.0734V10.8414ZM45.5563 5.72143V5.00143C46.1963 4.82009 46.7296 4.54809 47.1562 4.18543C47.5936 3.81209 47.9189 3.38543 48.1323 2.90543H48.9483V4.84143H50.7883V5.72143H48.9483V10.6334C48.9483 11.2948 49.0176 11.7641 49.1562 12.0414C49.3056 12.3188 49.5509 12.4574 49.8923 12.4574C50.3083 12.4574 50.6229 12.2654 50.8363 11.8814L51.1723 12.3454C50.8736 13.1028 50.1696 13.4814 49.0603 13.4814C48.3243 13.4814 47.7483 13.3108 47.3323 12.9694C46.9269 12.6281 46.7243 12.1481 46.7243 11.5294V5.72143H45.5563ZM67.6276 8.36143C67.6276 9.26809 67.5263 10.0468 67.3236 10.6974C67.1316 11.3374 66.8276 11.8654 66.4116 12.2814C65.9956 12.6974 65.457 13.0014 64.7956 13.1934C64.145 13.3854 63.361 13.4814 62.4436 13.4814C60.7263 13.4814 59.4676 13.1241 58.6676 12.4094C57.8783 11.6841 57.4836 10.5321 57.4836 8.95343V4.56943C57.4836 4.15343 57.4783 3.80676 57.4676 3.52943C57.457 3.24143 57.441 3.00143 57.4196 2.80943C57.3983 2.61743 57.3663 2.46276 57.3236 2.34543C57.2916 2.21743 57.249 2.11076 57.1956 2.02543C57.0996 1.87609 56.961 1.77476 56.7796 1.72143C56.5983 1.66809 56.321 1.64143 55.9476 1.64143V1.00143H61.6916V1.64143C61.2436 1.64143 60.913 1.66809 60.6996 1.72143C60.4863 1.76409 60.321 1.85476 60.2036 1.99343C60.129 2.07876 60.065 2.18543 60.0116 2.31343C59.969 2.43076 59.9316 2.59076 59.8996 2.79343C59.8783 2.98543 59.8623 3.22543 59.8516 3.51343C59.841 3.80143 59.8356 4.15343 59.8356 4.56943V8.76143C59.8356 9.97743 60.0916 10.8788 60.6036 11.4654C61.1263 12.0414 61.9263 12.3294 63.0036 12.3294C65.201 12.3294 66.2996 11.1081 66.2996 8.66543V4.96943C66.2996 4.52143 66.289 4.13743 66.2676 3.81743C66.257 3.49743 66.2303 3.22543 66.1876 3.00143C66.1556 2.77743 66.1076 2.59076 66.0436 2.44143C65.9903 2.29209 65.921 2.16943 65.8356 2.07343C65.6863 1.92409 65.4943 1.81743 65.2596 1.75343C65.025 1.67876 64.6996 1.64143 64.2836 1.64143V1.00143H69.4676V1.64143C69.073 1.64143 68.769 1.67343 68.5556 1.73743C68.3423 1.79076 68.177 1.89209 68.0596 2.04143C67.9743 2.13743 67.905 2.26543 67.8516 2.42543C67.7983 2.57476 67.7556 2.76676 67.7236 3.00143C67.6916 3.22543 67.665 3.49743 67.6436 3.81743C67.633 4.13743 67.6276 4.52143 67.6276 4.96943V8.36143ZM72.6443 5.88143H72.7083C73.4123 5.08143 74.3296 4.68143 75.4603 4.68143C76.0789 4.68143 76.6443 4.79343 77.1562 5.01743C77.6789 5.23076 78.1269 5.53476 78.5003 5.92943C78.8843 6.31343 79.1776 6.77743 79.3803 7.32143C79.5936 7.85476 79.7003 8.44143 79.7003 9.08143C79.7003 9.72143 79.5936 10.3081 79.3803 10.8414C79.1776 11.3748 78.8896 11.8388 78.5163 12.2334C78.1429 12.6281 77.6949 12.9374 77.1723 13.1614C76.6603 13.3748 76.1003 13.4814 75.4923 13.4814C74.4576 13.4814 73.6683 13.1294 73.1243 12.4254H73.0603V14.6494C73.0603 15.0761 73.0816 15.4174 73.1243 15.6734C73.1669 15.9294 73.2576 16.1268 73.3963 16.2654C73.5349 16.4041 73.7269 16.5001 73.9723 16.5534C74.2283 16.6068 74.5643 16.6388 74.9803 16.6494V17.3214H69.4603V16.6494C69.7483 16.6388 69.9829 16.6068 70.1643 16.5534C70.3456 16.5001 70.4843 16.4041 70.5803 16.2654C70.6869 16.1268 70.7563 15.9348 70.7883 15.6894C70.8309 15.4548 70.8523 15.1454 70.8523 14.7614V8.80943C70.8523 8.31876 70.8416 7.85476 70.8203 7.41743C70.7989 6.96943 70.7723 6.65476 70.7403 6.47343C70.6869 6.22809 70.5643 6.05743 70.3723 5.96143C70.1909 5.86543 69.8763 5.81743 69.4283 5.81743V5.19343L72.6443 4.74543V5.88143ZM75.3643 5.59343C75.0229 5.59343 74.6976 5.66809 74.3883 5.81743C74.0789 5.96676 73.8336 6.16409 73.6523 6.40943C73.4709 6.65476 73.3323 6.96409 73.2363 7.33743C73.1403 7.70009 73.0923 8.09476 73.0923 8.52143V9.60943C73.0923 10.3668 73.2789 11.0121 73.6523 11.5454C74.0576 12.1321 74.6283 12.4254 75.3643 12.4254C76.0149 12.4254 76.4949 12.1588 76.8043 11.6254C77.1243 11.0814 77.2843 10.2441 77.2843 9.11343C77.2843 6.76676 76.6443 5.59343 75.3643 5.59343Z" fill="#111111"/>
</svg>
