<svg width="40" height="40" viewBox="0 0 40 40" fill="none" xmlns="http://www.w3.org/2000/svg">
<circle cx="20" cy="20" r="19" stroke="#969696"/>
<path d="M28.1442 13.484C29.205 12.8292 29.9131 11.9403 30.2568 10.8055C29.2228 11.3566 28.1916 11.73 27.1605 11.9403C26.2361 10.9448 25.0628 10.4381 23.6583 10.4381C22.2835 10.4381 21.125 10.9211 20.1768 11.8574C19.2376 12.7996 18.7605 13.9492 18.7605 15.2885C18.7605 15.6944 18.8109 16.0589 18.9146 16.367C14.8613 16.2248 11.5102 14.5477 8.8672 11.3122C8.41979 12.1033 8.19461 12.9092 8.19461 13.7418C8.19461 15.4544 8.91757 16.8114 10.3576 17.81C9.53683 17.7418 8.81387 17.5314 8.19461 17.1907C8.19461 18.4144 8.55313 19.4366 9.27609 20.3374C9.99609 21.2263 10.9265 21.7951 12.0583 22.0351C11.6465 22.1418 11.2139 22.1922 10.7694 22.1922C10.3546 22.1922 10.0672 22.1566 9.89239 22.0826C10.2005 23.0811 10.7694 23.887 11.5931 24.5063C12.4139 25.1285 13.362 25.4544 14.4287 25.484C12.6776 26.8618 10.6687 27.5403 8.39905 27.5403C7.84202 27.5403 7.4509 27.5344 7.21387 27.49C9.44794 28.9389 11.9368 29.6618 14.6835 29.6618C17.5013 29.6618 19.9931 28.9477 22.1561 27.5196C24.3191 26.1003 25.922 24.3492 26.9472 22.284C27.9783 20.2248 28.4909 18.0796 28.4909 15.8426V15.2233C29.4865 14.4737 30.2953 13.6292 30.9146 12.6929C30.0316 13.087 29.1042 13.3507 28.1442 13.484Z" fill="#969696"/>
</svg>
