<svg width="40" height="40" viewBox="0 0 40 40" fill="none" xmlns="http://www.w3.org/2000/svg">
<circle cx="20" cy="20" r="19" stroke="#969696"/>
<path fill-rule="evenodd" clip-rule="evenodd" d="M13.4225 15.7263C12.1403 15.7263 11.498 15.133 11.498 13.9486C11.498 13.453 11.6803 13.033 12.0536 12.6886C12.4225 12.3441 12.878 12.1708 13.4225 12.1708C14.7047 12.1708 15.3469 12.7663 15.3469 13.9508C15.3469 15.1352 14.7069 15.7263 13.4225 15.7263ZM11.6447 28.7619V17.2086H15.2003V28.7619H11.6447ZM24.758 28.7619H28.3869H28.3892V21.9486C28.3892 20.3174 28.0069 19.0708 27.238 18.2063C26.4736 17.3419 25.4758 16.9108 24.238 16.9108C22.6092 16.9108 21.4247 17.5263 20.6092 18.7619L20.3869 17.2086H17.2758C17.3225 17.8997 17.3492 19.133 17.3492 20.9108V28.7619H20.978V22.0952C20.978 21.653 21.0292 21.3552 21.1247 21.2063C21.4247 20.2686 22.0403 19.7997 22.978 19.7997C24.1625 19.7997 24.758 20.6397 24.758 22.3174V28.7619Z" fill="#969696"/>
</svg>
