<svg width="676" height="484" viewBox="0 0 676 484" fill="none" xmlns="http://www.w3.org/2000/svg">
<path d="M590.142 421.046C584.65 421.517 579.124 421.444 573.647 420.826C513.431 414.177 431.432 416.068 364.588 457.429C272.144 514.62 127.267 465.659 63.3592 439.023C14.529 418.679 -10.821 368.85 4.40565 322.078C4.62002 321.418 4.84035 320.758 5.07259 320.098C14.654 292.302 33.5668 270.548 56.9874 259.017C77.4008 248.967 107.205 227.98 120.467 187.655C125.945 171.003 133.46 155.339 143.22 141.685C169.356 105.118 224.07 50.6626 318.169 51.0016C334.668 51.0814 351.043 53.8494 366.648 59.1964C401.026 70.8939 432.075 94.6754 455.751 127.645C470.859 148.673 493.5 168.22 525.912 169.814C570.895 172.038 613.824 192.953 646.028 230.175C646.957 231.245 647.874 232.322 648.792 233.41C706.131 301.627 666.305 414.397 590.142 421.046Z" fill="#1A84E3" fill-opacity="0.984594"/>
<g opacity="0.7">
<circle cx="164.477" cy="406.389" r="8.08965" fill="url(#paint0_linear_0:1577)"/>
</g>
<circle opacity="0.2" cx="165" cy="407" r="8" fill="black"/>
<circle cx="121" cy="246" r="3" fill="white"/>
<circle cx="337" cy="423" r="3" fill="white"/>
<circle cx="209.5" cy="438.5" r="1.5" fill="white"/>
<circle cx="584.5" cy="355.5" r="1.5" fill="white"/>
<circle cx="487.5" cy="203.5" r="1.5" fill="white"/>
<circle cx="625.5" cy="277.5" r="1.5" fill="white"/>
<circle cx="174" cy="147" r="3" fill="white"/>
<path d="M91 352.495H88.0924V350H86.9076V352.495H84V353.511H86.9076V356H88.0924V353.511H91V352.495V352.495Z" fill="white"/>
<path d="M159 351.495H156.092V349H154.908V351.495H152V352.511H154.908V355H156.092V352.511H159V351.495V351.495Z" fill="white"/>
<path d="M256 406.495H253.092V404H251.908V406.495H249V407.511H251.908V410H253.092V407.511H256V406.495V406.495Z" fill="white"/>
<path d="M391 78.247H389.753V77H389.247V78.247H388V78.753H389.247V80H389.753V78.753H391V78.247V78.247Z" fill="white"/>
<path d="M566 191.247H564.753V190H564.247V191.247H563V191.753H564.247V193H564.753V191.753H566V191.247Z" fill="white"/>
<path d="M463 264.247H461.753V263H461.247V264.247H460V264.753H461.247V266H461.753V264.753H463V264.247V264.247Z" fill="white"/>
<path d="M41 311.247H39.753V310H39.247V311.247H38V311.753H39.247V313H39.753V311.753H41V311.247V311.247Z" fill="white"/>
<path d="M92 412.247H90.753V411H90.247V412.247H89V412.753H90.247V414H90.753V412.753H92V412.247V412.247Z" fill="white"/>
<path d="M251 92.247H249.753V91H249.247V92.247H248V92.753H249.247V94H249.753V92.753H251V92.247V92.247Z" fill="white"/>
<path d="M176 270.247H174.753V269H174.247V270.247H173V270.753H174.247V272H174.753V270.753H176V270.247V270.247Z" fill="white"/>
<path d="M192 219.247H190.753V218H190.247V219.247H189V219.753H190.247V221H190.753V219.753H192V219.247V219.247Z" fill="white"/>
<g opacity="0.7">
<circle cx="445.088" cy="330.796" r="6.72" fill="url(#paint1_linear_0:1577)"/>
</g>
<circle opacity="0.2" cx="445.5" cy="330.5" r="6.5" fill="black"/>
<circle opacity="0.2" cx="462" cy="375" r="7" fill="black"/>
<g opacity="0.7">
<path d="M397.982 182.833C398.031 167.908 394.461 153.195 387.578 139.958C384.315 133.741 381.336 129.882 379.041 127.506C377.244 125.604 374.436 125.063 372.062 126.16C371.136 126.489 370.3 127.029 369.619 127.738C366.521 130.954 363.721 135.206 361.296 139.725C354.059 153.278 350.306 168.423 350.375 183.792V193.01H344.471V85.8159C344.471 63.354 339.454 41.1959 329.609 21.5448C324.948 12.2313 320.691 6.44319 317.427 2.88812C315.824 1.05779 313.512 0.0083313 311.081 0.0083313C308.65 0.0083313 306.337 1.05779 304.735 2.88812C300.312 7.70562 296.316 14.0774 292.845 20.8481C282.506 40.9279 277.257 63.7232 277.257 86.8401V192.968H272.156V183.303C272.221 167.944 268.468 152.81 261.235 139.267C258.792 134.747 255.991 130.495 252.912 127.28C251.076 125.326 248.183 124.8 245.778 125.982L245.992 126.095C245.245 126.428 244.569 126.901 244 127.488C241.711 129.87 238.733 133.723 235.469 139.94C228.587 153.177 225.016 167.89 225.065 182.815V343.001H243.281L241.272 356.168V395.547H256.17V356.168L254.178 342.996H272.132V197.101H277.233V342.364H291.78L289.694 356.168V395.547H304.592V356.168L302.505 342.346H322.124L320.025 356.168V395.547H334.923V356.168L332.837 342.346H344.453V197.119H350.357V343.234H355.142V343.013H370.968L368.982 356.168V395.547H383.881V356.168L381.889 342.996H397.982V182.833Z" fill="url(#paint2_linear_0:1577)"/>
</g>
<path d="M259 348H245L247.501 331H256.499L259 348V348Z" fill="#535461"/>
<g opacity="0.1">
<path d="M247.423 337.933H257.618L256.935 333.461H248.106L247.423 337.933V337.933Z" fill="black"/>
</g>
<path d="M380 348H366L368.497 331H377.503L380 348V348Z" fill="#535461"/>
<g opacity="0.1">
<path d="M368.049 337.933H378.817L378.095 333.461H368.77L368.049 337.933V337.933Z" fill="black"/>
</g>
<path d="M305 348H291L293.497 331H302.503L305 348V348Z" fill="#535461"/>
<g opacity="0.1">
<path d="M293.48 337.933H303.682L302.998 333.461H294.164L293.48 337.933V337.933Z" fill="black"/>
</g>
<path d="M334 348H320L322.497 331H331.497L334 348V348Z" fill="#535461"/>
<g opacity="0.1">
<path d="M322.079 337.933H332.847L332.12 333.461H322.801L322.079 337.933V337.933Z" fill="black"/>
</g>
<rect x="259" y="189" width="101" height="4" fill="#535461"/>
<path d="M375.898 125.873C374.812 124.68 373.269 124 371.65 124C370.032 124 368.489 124.68 367.402 125.873C364.444 129.009 361.769 133.152 359.435 137.558C352.512 150.817 348.931 165.548 349.001 180.485V336H393.999V179.829C394.056 165.305 390.649 150.975 384.058 138.011C380.932 131.954 378.088 128.162 375.898 125.873Z" fill="#E0E0E0"/>
<path d="M248.096 125.873C249.182 124.68 250.725 124 252.344 124C253.962 124 255.506 124.68 256.592 125.873C259.556 129.009 262.226 133.152 264.565 137.558C271.486 150.818 275.066 165.548 274.999 180.485V336H230.001V179.829C229.944 165.305 233.351 150.975 239.942 138.011C243.062 131.954 245.906 128.162 248.096 125.873Z" fill="#E0E0E0"/>
<path d="M230 183L241 183.053V196H230V183V183Z" fill="#535461"/>
<path d="M264 183L275 183.053V196H264V183V183Z" fill="#535461"/>
<path d="M349 183L360 183.053V196H349V183V183Z" fill="#535461"/>
<path d="M383 183L394 183.053V196H383V183V183Z" fill="#535461"/>
<g opacity="0.1">
<path d="M264.376 136.973C262.018 132.585 259.327 128.457 256.34 125.334C254.607 123.446 251.803 122.928 249.49 124.069C250.138 124.387 250.723 124.815 251.219 125.334C254.2 128.457 256.897 132.585 259.249 136.973C266.226 150.179 269.835 164.851 269.764 179.729V334.614H274.891V179.735C274.96 164.856 271.352 150.182 264.376 136.973Z" fill="black"/>
</g>
<g opacity="0.1">
<path d="M364.113 137.807C366.429 133.418 369.083 129.291 372.018 126.168C372.567 125.576 373.231 125.103 373.97 124.778C371.733 123.801 369.12 124.361 367.482 126.168C364.542 129.291 361.887 133.418 359.571 137.807C352.706 151.014 349.154 165.685 349.22 180.563V335.471H353.762V180.575C353.691 165.693 357.243 151.016 364.113 137.807V137.807Z" fill="black"/>
</g>
<path d="M252.192 386H251.808C248.048 386 245 382.951 245 379.191V348H259V379.191C259 380.997 258.283 382.729 257.006 384.006C255.729 385.283 253.997 386 252.192 386Z" fill="url(#paint3_linear_0:1577)"/>
<path d="M298.195 386H297.805C294.046 385.997 291 382.949 291 379.191V348H305V379.191C305 382.949 301.954 385.997 298.195 386Z" fill="url(#paint4_linear_0:1577)"/>
<path d="M327.189 386H326.793C323.039 385.99 320 382.944 320 379.191V348H334V379.191C334 382.951 330.951 386 327.189 386Z" fill="url(#paint5_linear_0:1577)"/>
<path d="M373.195 386H372.823C371.014 386.003 369.279 385.287 367.999 384.01C366.719 382.732 366 380.999 366 379.191V348H380V379.191C380 382.949 376.954 385.997 373.195 386Z" fill="url(#paint6_linear_0:1577)"/>
<path d="M317.298 3.80442C315.798 2.02652 313.586 1 311.254 1C308.923 1 306.71 2.02652 305.21 3.80442C301.023 8.49919 297.195 14.7013 293.846 21.3026C284 40.8681 279 63.0788 279 85.5994V335H343V84.5985C343 62.7154 338.215 41.1064 328.86 21.9818C324.464 12.908 320.415 7.26592 317.298 3.80442Z" fill="#EEEEEE"/>
<rect x="294" y="32" width="33" height="15" rx="7.5" fill="#535461"/>
<g opacity="0.1">
<rect x="279.287" y="94.21" width="63.348" height="2.466" fill="black"/>
</g>
<path d="M452.855 185.115V185.115C451.196 182.938 449.121 181.111 446.751 179.741V179.741C439.285 175.438 429.924 176.26 423.324 181.798C416.723 187.337 414.29 196.411 417.236 204.507C420.182 212.603 427.877 217.995 436.494 218C436.931 218 437.367 218 437.791 217.952C445.32 217.477 451.98 212.907 455.129 206.053C458.278 199.199 457.407 191.171 452.861 185.151L452.855 185.115Z" fill="url(#paint7_linear_0:1577)"/>
<path opacity="0.2" d="M456 197.506C455.998 207.793 448.005 216.308 437.741 216.958C437.338 216.958 436.924 217 436.509 217C428.31 217.005 420.984 211.878 418.178 204.173C415.372 196.467 417.687 187.829 423.969 182.559C430.252 177.289 439.16 176.514 446.258 180.619V180.619C448.515 181.929 450.488 183.678 452.06 185.762V185.762C454.621 189.141 456.005 193.266 456 197.506Z" fill="black"/>
<path opacity="0.1" d="M431.705 185.202C430.713 185.639 429.756 186.155 428.843 186.746C428.234 187.087 427.71 187.568 427.312 188.151C426.909 188.751 426.895 189.54 427.277 190.155C427.744 190.809 428.642 190.906 429.435 190.955C430.266 191.063 431.111 190.976 431.906 190.7C432.442 190.429 432.929 190.066 433.348 189.628L434.997 188.096C435.588 187.563 436.179 186.831 435.949 186.08C435.672 185.535 435.145 185.17 434.548 185.111C433.126 184.827 431.652 185.092 430.41 185.856" fill="black"/>
<g opacity="0.1">
<circle cx="425" cy="204.91" r="0.855" fill="black"/>
</g>
<g opacity="0.1">
<ellipse cx="445.135" cy="199" rx="3.85231" ry="3.57714" fill="black"/>
</g>
<g opacity="0.1">
<path d="M451.749 185.781V185.781C451.718 188.566 449.506 190.836 446.723 190.938C443.94 191.041 441.567 188.94 441.331 186.165C441.095 183.39 443.08 180.919 445.84 180.55V180.55C448.139 181.882 450.148 183.661 451.749 185.781V185.781Z" fill="black"/>
</g>
<g opacity="0.1">
<path d="M451.521 208.255C448.259 213.174 443.062 216.254 437.398 216.627C437.398 216.352 437.363 216.077 437.363 215.796C437.367 212.247 439.257 209.003 442.25 207.408C445.244 205.814 448.83 206.141 451.521 208.255Z" fill="black"/>
</g>
<path d="M189.122 295.812V295.812C187.954 294.265 186.489 292.967 184.814 291.994V291.994C179.542 288.897 172.896 289.447 168.204 293.368C163.511 297.289 161.783 303.736 163.883 309.482C165.983 315.229 171.46 319.037 177.572 319C177.879 319 178.175 319 178.489 318.97C183.786 318.613 188.463 315.383 190.679 310.553C192.894 305.723 192.292 300.066 189.11 295.812H189.122Z" fill="url(#paint8_linear_0:1577)"/>
<path opacity="0.2" d="M191 304.53C190.998 311.654 185.462 317.55 178.351 318C178.071 318 177.755 318 177.499 318C171.824 317.999 166.755 314.449 164.815 309.116C162.874 303.784 164.475 297.807 168.822 294.159C173.169 290.511 179.334 289.971 184.249 292.807V292.807C185.815 293.718 187.182 294.935 188.269 296.385V296.385C190.047 298.727 191.006 301.589 191 304.53Z" fill="black"/>
<path opacity="0.1" d="M174.113 295.138C173.454 295.426 172.818 295.769 172.213 296.162C171.809 296.393 171.46 296.714 171.192 297.1C170.936 297.507 170.936 298.03 171.192 298.437C171.571 298.82 172.094 299.015 172.624 298.969C173.179 299.042 173.742 298.985 174.271 298.801C174.63 298.619 174.956 298.377 175.236 298.084L176.33 297.065C176.713 296.706 177.13 296.22 176.961 295.722C176.786 295.352 176.431 295.105 176.031 295.074C175.087 294.884 174.108 295.062 173.284 295.572" fill="black"/>
<g opacity="0.1">
<circle cx="168.965" cy="308.97" r="0.595" fill="black"/>
</g>
<g opacity="0.1">
<ellipse cx="184.096" cy="304.444" rx="2.622" ry="2.42778" fill="black"/>
</g>
<g opacity="0.1">
<path d="M187.822 295.92V295.92C187.806 297.895 186.238 299.509 184.264 299.581C182.29 299.653 180.609 298.159 180.449 296.19C180.289 294.221 181.708 292.475 183.668 292.228V292.228C185.286 293.167 186.699 294.423 187.822 295.92Z" fill="black"/>
</g>
<g opacity="0.1">
<path d="M188.481 311.871C186.069 315.327 182.229 317.491 178.043 317.754C178.043 317.563 178.043 317.366 178.043 317.138C178.045 314.645 179.442 312.366 181.654 311.245C183.866 310.125 186.516 310.355 188.505 311.84L188.481 311.871Z" fill="black"/>
</g>
<circle cx="568" cy="255" r="1" fill="white"/>
<defs>
<linearGradient id="paint0_linear_0:1577" x1="172.563" y1="414.478" x2="172.563" y2="398.305" gradientUnits="userSpaceOnUse">
<stop stop-color="#808080" stop-opacity="0.25"/>
<stop offset="0.54" stop-color="#808080" stop-opacity="0.12"/>
<stop offset="1" stop-color="#808080" stop-opacity="0.1"/>
</linearGradient>
<linearGradient id="paint1_linear_0:1577" x1="451.805" y1="337.51" x2="451.805" y2="324.076" gradientUnits="userSpaceOnUse">
<stop stop-color="#808080" stop-opacity="0.25"/>
<stop offset="0.54" stop-color="#808080" stop-opacity="0.12"/>
<stop offset="1" stop-color="#808080" stop-opacity="0.1"/>
</linearGradient>
<linearGradient id="paint2_linear_0:1577" x1="397.977" y1="395.565" x2="397.977" y2="8.43128e-06" gradientUnits="userSpaceOnUse">
<stop stop-color="#808080" stop-opacity="0.25"/>
<stop offset="0.54" stop-color="#808080" stop-opacity="0.12"/>
<stop offset="1" stop-color="#808080" stop-opacity="0.1"/>
</linearGradient>
<linearGradient id="paint3_linear_0:1577" x1="245.003" y1="348" x2="245.003" y2="386" gradientUnits="userSpaceOnUse">
<stop stop-color="#E0E0E0"/>
<stop offset="0.31" stop-color="#FCCC63"/>
<stop offset="0.77" stop-color="#F55F44"/>
</linearGradient>
<linearGradient id="paint4_linear_0:1577" x1="291" y1="348" x2="291" y2="386" gradientUnits="userSpaceOnUse">
<stop stop-color="#E0E0E0"/>
<stop offset="0.31" stop-color="#FCCC63"/>
<stop offset="0.77" stop-color="#F55F44"/>
</linearGradient>
<linearGradient id="paint5_linear_0:1577" x1="320" y1="348" x2="320" y2="386" gradientUnits="userSpaceOnUse">
<stop stop-color="#E0E0E0"/>
<stop offset="0.31" stop-color="#FCCC63"/>
<stop offset="0.77" stop-color="#F55F44"/>
</linearGradient>
<linearGradient id="paint6_linear_0:1577" x1="366" y1="348" x2="366" y2="386" gradientUnits="userSpaceOnUse">
<stop stop-color="#E0E0E0"/>
<stop offset="0.31" stop-color="#FCCC63"/>
<stop offset="0.77" stop-color="#F55F44"/>
</linearGradient>
<linearGradient id="paint7_linear_0:1577" x1="456.988" y1="217.964" x2="456.988" y2="176.964" gradientUnits="userSpaceOnUse">
<stop stop-color="#808080" stop-opacity="0.25"/>
<stop offset="0.54" stop-color="#808080" stop-opacity="0.12"/>
<stop offset="1" stop-color="#808080" stop-opacity="0.1"/>
</linearGradient>
<linearGradient id="paint8_linear_0:1577" x1="192.057" y1="319" x2="192.057" y2="290.054" gradientUnits="userSpaceOnUse">
<stop stop-color="#808080" stop-opacity="0.25"/>
<stop offset="0.54" stop-color="#808080" stop-opacity="0.12"/>
<stop offset="1" stop-color="#808080" stop-opacity="0.1"/>
</linearGradient>
</defs>
</svg>
