<svg width="24" height="20" viewBox="0 0 24 20" fill="none" xmlns="http://www.w3.org/2000/svg">
<path d="M22.7197 2.67148C22.6086 2.70363 22.4975 2.73357 22.3864 2.76146C21.7071 2.93136 21.6447 2.70716 22.1365 2.21253C22.3567 1.99089 22.5513 1.74981 22.7202 1.48944C23.099 0.905564 22.7705 0.650938 22.1261 0.923675C21.8962 1.02097 21.6625 1.10918 21.4256 1.18783C20.7616 1.40874 19.8193 1.07551 19.2276 0.703753C18.4807 0.234502 17.6318 0 16.6807 0C15.3484 0 14.2128 0.465472 13.2733 1.39568C12.3341 2.32638 11.8642 3.45166 11.8642 4.77115C11.8642 4.95161 11.8746 5.13482 11.8952 5.32057C11.9289 5.62292 11.4149 5.8421 10.7213 5.74505C9.2208 5.53519 7.79521 5.08479 6.4442 4.39435C5.10434 3.70969 3.9218 2.84811 2.8968 1.80957C2.40683 1.31321 1.74415 1.35596 1.56121 2.026C1.4516 2.42765 1.39708 2.84536 1.39708 3.27921C1.39708 4.09681 1.59089 4.8551 1.97859 5.55409C2.1714 5.90194 2.39721 6.21685 2.65652 6.49862C3.09268 6.97293 3.02593 7.24813 2.41881 7.0795C1.81193 6.91087 1.36719 6.66052 1.36719 6.67686C1.36719 6.69321 1.36719 6.70651 1.36719 6.70651C1.36719 7.85841 1.7323 8.87054 2.46296 9.74194C2.91305 10.2788 3.43593 10.6935 4.03141 10.9856C4.65935 11.2937 4.95186 11.4656 4.60073 11.5106C4.38889 11.5377 4.17576 11.5513 3.96139 11.5513C3.81629 11.5513 3.66407 11.5448 3.50525 11.5315C3.25407 11.5104 3.20892 12.0288 3.58974 12.6115C3.89241 13.0745 4.27982 13.4819 4.75175 13.8338C5.23177 14.1919 5.7491 14.449 6.30292 14.6056C6.97678 14.7959 7.11201 15.1425 6.51119 15.4994C5.02445 16.3832 3.37914 16.825 1.57551 16.825C1.37229 16.825 1.17844 16.8205 0.993257 16.8117C0.671806 16.7963 0.887461 17.0768 1.50802 17.3988C3.44713 18.4049 5.54709 18.9076 7.80819 18.9076C9.51771 18.9076 11.1232 18.6394 12.6244 18.1028C14.1251 17.5662 15.4076 16.8471 16.4711 15.946C17.5347 15.045 18.4519 14.0087 19.2224 12.8367C19.9927 11.6647 20.5666 10.4411 20.9446 9.16612C21.3221 7.89081 21.5111 6.613 21.5111 5.33268C21.5111 5.21732 21.5101 5.11375 21.5084 5.02253C21.5048 4.85111 21.9625 4.38712 22.4735 3.91237C22.7041 3.69799 22.924 3.47301 23.1341 3.23703C23.5976 2.71595 23.3923 2.47718 22.7197 2.67148Z" fill="white"/>
</svg>
