<svg width="23" height="21" viewBox="0 0 23 21" fill="none" xmlns="http://www.w3.org/2000/svg">
<path fill-rule="evenodd" clip-rule="evenodd" d="M23 17.4643V5.25C23 4.12612 22.0342 3.21429 20.8438 3.21429H16.8906L16.3336 1.81897C16.0191 1.02589 15.215 0.5 14.3166 0.5H8.67891C7.78047 0.5 6.97637 1.02589 6.66191 1.81897L6.10938 3.21429H2.15625C0.96582 3.21429 0 4.12612 0 5.25V17.4643C0 18.5882 0.96582 19.5 2.15625 19.5H20.8438C22.0342 19.5 23 18.5882 23 17.4643ZM11.5 6.26786C14.4738 6.26786 16.8906 8.54955 16.8906 11.3571C16.8906 14.1647 14.4738 16.4464 11.5 16.4464C8.52617 16.4464 6.10938 14.1647 6.10938 11.3571C6.10938 8.54955 8.52617 6.26786 11.5 6.26786ZM15.4531 11.3571C15.4531 13.4141 13.6787 15.0893 11.5 15.0893C9.32129 15.0893 7.54688 13.4141 7.54688 11.3571C7.54688 9.30022 9.32129 7.625 11.5 7.625C13.6787 7.625 15.4531 9.30022 15.4531 11.3571ZM11.5 10C10.7094 10 10.0625 10.6107 10.0625 11.3571C10.0625 11.7304 9.73906 12.0357 9.34375 12.0357C8.94844 12.0357 8.625 11.7304 8.625 11.3571C8.625 9.86004 9.91426 8.64286 11.5 8.64286C11.8953 8.64286 12.2188 8.94821 12.2188 9.32143C12.2188 9.69464 11.8953 10 11.5 10Z" fill="black"/>
</svg>
