<svg width="30" height="30" viewBox="0 0 30 30" fill="none" xmlns="http://www.w3.org/2000/svg">
<path d="M28.3421 0H1.65789C0.742265 0 0 0.742265 0 1.65789V28.3421C0 29.2577 0.742265 30 1.65789 30H16.0263V18.4211H12.1053V13.8579H16.0053V10.5263C16.0053 6.64737 18.3684 4.53684 21.8263 4.53684C23.001 4.54033 24.1746 4.6071 25.3421 4.73684V8.78421H22.9526C21.0737 8.78421 20.7105 9.67369 20.7105 10.9842V13.8789H25.2105L24.6263 18.4211H20.7105V30H28.3421C29.2577 30 30 29.2577 30 28.3421V1.65789C30 0.742265 29.2577 0 28.3421 0Z" fill="white"/>
</svg>
