<svg width="19" height="21" viewBox="0 0 19 21" fill="none" xmlns="http://www.w3.org/2000/svg">
<path fill-rule="evenodd" clip-rule="evenodd" d="M5.67732 0.5H12.8101C15.7088 0.5 18.0672 3.0268 18.0672 6.13267V13.7749C18.0672 16.8808 15.7089 19.4076 12.8101 19.4076H5.67732C2.77851 19.4076 0.420166 16.8808 0.420166 13.7749V6.13267C0.420166 3.0268 2.77851 0.5 5.67732 0.5ZM12.8101 17.5055C14.733 17.5055 16.2919 15.8352 16.2919 13.7749V6.13266C16.2919 4.07231 14.733 2.4021 12.8101 2.4021H5.67732C3.75436 2.4021 2.19546 4.07231 2.19546 6.13266V13.7749C2.19546 15.8352 3.75436 17.5055 5.67732 17.5055H12.8101Z" fill="white"/>
<path fill-rule="evenodd" clip-rule="evenodd" d="M4.62183 9.95379C4.62183 7.22329 6.69518 5.00183 9.24367 5.00183C11.7922 5.00183 13.8655 7.22326 13.8655 9.95379C13.8655 12.6843 11.7922 14.9058 9.24367 14.9058C6.69518 14.9058 4.62183 12.6843 4.62183 9.95379ZM6.41956 9.95383C6.41956 11.625 7.68395 12.9797 9.24367 12.9797C10.8034 12.9797 12.0678 11.6249 12.0678 9.95383C12.0678 8.28269 10.8034 6.92798 9.24367 6.92798C7.68398 6.92798 6.41956 8.28269 6.41956 9.95383Z" fill="white"/>
<ellipse cx="13.8656" cy="5.0018" rx="0.840336" ry="0.90036" fill="white"/>
</svg>
