<svg width="20" height="16" viewBox="0 0 20 16" fill="none" xmlns="http://www.w3.org/2000/svg">
<path d="M18.5956 6.48939L18.6261 6.49597H5.57053L9.67471 2.43485C9.87568 2.23658 9.98593 1.96799 9.98593 1.68609C9.98593 1.40419 9.87568 1.13748 9.67471 0.938735L9.0361 0.3079C8.83528 0.109629 8.56769 0 8.28233 0C7.99681 0 7.72905 0.108846 7.52824 0.307117L0.492885 7.25272C0.291277 7.45178 0.181035 7.71692 0.181828 7.99898C0.181035 8.28261 0.291277 8.54791 0.492885 8.74665L7.52824 15.6929C7.72905 15.891 7.99665 16 8.28233 16C8.56769 16 8.83528 15.8908 9.0361 15.6929L9.67471 15.062C9.87568 14.8641 9.98593 14.5997 9.98593 14.3178C9.98593 14.0361 9.87568 13.7857 9.67471 13.5875L5.52421 9.50371H18.6102C19.1982 9.50371 19.6923 9.00334 19.6923 8.42309V7.53087C19.6923 6.95062 19.1836 6.48939 18.5956 6.48939Z" fill="white"/>
</svg>
