<svg width="21" height="16" viewBox="0 0 21 16" fill="none" xmlns="http://www.w3.org/2000/svg">
<path fill-rule="evenodd" clip-rule="evenodd" d="M5.13979 5.5C5.13979 2.59375 7.49474 0 10.762 0C12.9681 -0.000855978 14.9707 1.26102 15.8821 3.22634C16.7936 5.19166 16.4454 7.4969 14.9918 9.12031C14.4605 9.71312 13.6271 10.9572 13.3176 12H11.7842V11.9975C11.7886 11.846 11.8127 11.6958 11.8561 11.5503C12.0379 10.9881 12.5908 9.52375 13.8395 8.12969C14.8958 6.94903 15.1483 5.27302 14.4852 3.84444C13.822 2.41587 12.3659 1.49893 10.762 1.5C8.58085 1.5 6.66802 3.19875 6.67505 5.5C6.67398 6.46739 7.03279 7.4021 7.68449 8.12969C8.94118 9.53312 9.49223 11 9.6708 11.5566C9.71584 11.699 9.73877 11.8472 9.73884 11.9962V12H8.2055V11.9981C7.89692 10.9556 7.06253 9.71187 6.53129 9.11812C5.63267 8.11802 5.1379 6.83154 5.13979 5.5ZM2.95671 0.725626L4.72707 1.72563C4.96964 1.85695 5.12084 2.10615 5.1225 2.37735C5.12416 2.64856 4.97602 2.89951 4.73507 3.03366C4.49413 3.16782 4.19792 3.16426 3.96041 3.02438L2.19004 2.02438C1.94748 1.89305 1.79628 1.64385 1.79462 1.37265C1.79296 1.10144 1.9411 0.850489 2.18204 0.716338C2.42299 0.582186 2.7192 0.585737 2.95671 0.725626ZM4.11757 6C4.11757 5.58579 3.77432 5.25 3.35091 5.25H1.30646C0.883043 5.25 0.539795 5.58579 0.539795 6C0.539795 6.41421 0.883043 6.75 1.30646 6.75H3.35091C3.77432 6.75 4.11757 6.41421 4.11757 6ZM3.96041 8.97563L2.19004 9.97563C1.94748 10.1069 1.79628 10.3561 1.79462 10.6274C1.79296 10.8986 1.9411 11.1495 2.18204 11.2837C2.42299 11.4178 2.7192 11.4143 2.95671 11.2744L4.72707 10.2744C5.08515 10.0635 5.20457 9.61086 4.99555 9.25678C4.78653 8.9027 4.32611 8.77764 3.96041 8.97563ZM17.1809 3.125C17.3156 3.12525 17.4479 3.09053 17.5643 3.02438L19.3346 2.02438C19.6927 1.81348 19.8121 1.36086 19.6031 1.00678C19.3941 0.652697 18.9337 0.527643 18.568 0.725626L16.7976 1.72563C16.4972 1.89542 16.3509 2.24134 16.4406 2.56913C16.5304 2.89692 16.834 3.12489 17.1809 3.125ZM18.1731 5.25H20.2176C20.641 5.25 20.9842 5.58579 20.9842 6C20.9842 6.41421 20.641 6.75 20.2176 6.75H18.1731C17.7497 6.75 17.4065 6.41421 17.4065 6C17.4065 5.58579 17.7497 5.25 18.1731 5.25ZM19.334 9.97594L17.5636 8.97594C17.3261 8.83605 17.0299 8.8325 16.789 8.96665C16.548 9.1008 16.3999 9.35176 16.4015 9.62296C16.4032 9.89417 16.5544 10.1434 16.797 10.2747L18.5673 11.2747C18.933 11.4727 19.3934 11.3476 19.6025 10.9935C19.8115 10.6395 19.6921 10.1868 19.334 9.97594ZM10.762 2.5C9.06915 2.50189 7.69729 3.84393 7.69535 5.5C7.69535 5.77614 7.92418 6 8.20646 6C8.48874 6 8.71757 5.77614 8.71757 5.5C8.71898 4.396 9.63349 3.50138 10.762 3.5C11.0443 3.5 11.2731 3.27614 11.2731 3C11.2731 2.72386 11.0443 2.5 10.762 2.5ZM8.29431 14.6259C8.23852 14.5441 8.20863 14.448 8.20838 14.3497L8.20646 13H13.3176L13.3157 14.3488C13.315 14.447 13.2852 14.543 13.2297 14.625L12.4471 15.7769C12.3522 15.9164 12.1922 16.0002 12.0209 16H9.50213C9.33118 15.9999 9.17161 15.9161 9.07695 15.7769L8.29431 14.6259Z" fill="#0076DF"/>
</svg>
