<svg width="20" height="20" viewBox="0 0 20 20" fill="none" xmlns="http://www.w3.org/2000/svg">
<path fill-rule="evenodd" clip-rule="evenodd" d="M3.30233 0C1.90872 0 0.997192 0.980799 0.997192 2.27058C0.997192 3.53226 1.88235 4.54283 3.24826 4.54283H3.27547C4.69606 4.54283 5.57954 3.53245 5.57954 2.27058C5.55277 0.980799 4.69606 0 3.30233 0ZM19.9972 11.9435V19.4805H15.9249V12.4483C15.9249 10.6817 15.3359 9.47611 13.8618 9.47611C12.7366 9.47611 12.0669 10.2886 11.7723 11.0746C11.6649 11.3555 11.6373 11.7466 11.6373 12.1399V19.4805H7.56357C7.56357 19.4805 7.61844 7.57021 7.56357 6.33621H11.6369V8.19936C11.633 8.20595 11.6285 8.21277 11.6241 8.21957L11.6241 8.21959C11.6191 8.22717 11.6142 8.23471 11.6101 8.24183H11.6369V8.19936C12.178 7.30502 13.1445 6.02741 15.3078 6.02741C17.988 6.02737 19.9972 7.90607 19.9972 11.9435ZM5.31127 19.4805H1.23913V6.33621H5.31127V19.4805Z" fill="white"/>
</svg>
