<svg width="40" height="40" viewBox="0 0 40 40" fill="none" xmlns="http://www.w3.org/2000/svg">
<circle cx="20" cy="20" r="19" stroke="#969696"/>
<path fill-rule="evenodd" clip-rule="evenodd" d="M20.3823 22.8522C19.7935 22.6052 19.2422 22.242 18.7638 21.7636C16.7838 19.7836 16.7841 16.5617 18.7638 14.582L21.8575 11.4886C23.841 9.50428 27.0543 9.50331 29.0387 11.4886C31.0231 13.4721 31.024 16.6853 29.0387 18.6698L25.9454 21.7636C25.9002 21.8087 25.8542 21.853 25.8074 21.8965C25.5125 22.1701 25.0342 21.9748 25.018 21.5728C25.0105 21.3849 24.9947 21.1975 24.9705 21.011C24.9517 20.8658 24.9997 20.7201 25.1032 20.6166C25.747 19.9733 28.0385 17.6819 28.0446 17.6757C29.4797 16.2398 29.4794 13.9184 28.0446 12.4828C26.6087 11.0477 24.2873 11.048 22.8517 12.4828L19.7579 15.5765L19.7439 15.5906C18.3259 17.0231 18.3322 19.3433 19.7583 20.7695C20.0792 21.0904 20.4449 21.339 20.8359 21.5159C21.0142 21.5966 21.1259 21.7763 21.1145 21.9718C21.1028 22.1743 21.0657 22.3745 21.0041 22.5678C20.922 22.8256 20.6318 22.9569 20.3823 22.8522ZM19.1972 28.5114L22.2909 25.418C24.2706 23.4383 24.2709 20.2164 22.2909 18.2364C21.8125 17.758 21.2612 17.3948 20.6724 17.1478C20.4229 17.0431 20.1327 17.1743 20.0505 17.4322C19.989 17.6255 19.9519 17.8257 19.9402 18.0282C19.9288 18.2237 20.0405 18.4034 20.2188 18.4841C20.6098 18.661 20.9755 18.9097 21.2964 19.2305C22.7225 20.6567 22.7288 22.9769 21.3108 24.4094L21.2968 24.4235L18.203 27.5172C16.7674 28.952 14.446 28.9523 13.0101 27.5172C11.5753 26.0816 11.575 23.7602 13.0101 22.3243C13.0162 22.3181 15.3077 20.0267 15.9515 19.3834C16.055 19.2799 16.1029 19.1342 16.0842 18.989C16.06 18.8024 16.0442 18.6149 16.0367 18.4272C16.0205 18.0252 15.5422 17.8299 15.2473 18.1035C15.2005 18.147 15.1545 18.1913 15.1093 18.2364L12.016 21.3302C10.0307 23.3147 10.0316 26.5279 12.016 28.5114C14.0004 30.4967 17.2137 30.4957 19.1972 28.5114Z" fill="#969696"/>
</svg>
