<svg width="40" height="40" viewBox="0 0 40 40" fill="none" xmlns="http://www.w3.org/2000/svg">
<circle cx="20" cy="20" r="19" stroke="#969696"/>
<path fill-rule="evenodd" clip-rule="evenodd" d="M22.5793 24.7617C23.2862 23.9883 24.3146 23.5 25.4634 23.5C27.5924 23.5 29.3197 25.1797 29.3237 27.25C29.3237 29.3203 27.5964 31 25.4674 31C23.3385 31 21.6112 29.3203 21.6112 27.25C21.6112 26.7422 21.7116 26.2617 21.9004 25.8203L18.0642 23.4883C17.3572 24.2617 16.3289 24.75 15.18 24.75C13.051 24.75 11.3237 23.0703 11.3237 21C11.3237 18.9297 13.051 17.25 15.18 17.25C16.3289 17.25 17.3572 17.7383 18.0602 18.5117L21.8964 16.1797C21.7116 15.7383 21.6071 15.2578 21.6071 14.75C21.6071 12.6797 23.3344 11 25.4634 11C27.5924 11 29.3197 12.6797 29.3197 14.75C29.3197 16.8203 27.5924 18.5 25.4634 18.5C24.3146 18.5 23.2862 18.0117 22.5793 17.2383L18.7431 19.5703C19.1327 20.4844 19.1287 21.5156 18.7431 22.4297L22.5793 24.7617ZM28.0343 14.75C28.0343 13.3711 26.8814 12.25 25.4634 12.25C24.0454 12.25 22.8926 13.3711 22.8926 14.75C22.8926 16.1289 24.0454 17.25 25.4634 17.25C26.8814 17.25 28.0343 16.1289 28.0343 14.75ZM15.18 23.5C13.762 23.5 12.6092 22.3789 12.6092 21C12.6092 19.6211 13.762 18.5 15.18 18.5C16.598 18.5 17.7509 19.6211 17.7509 21C17.7509 22.3789 16.598 23.5 15.18 23.5ZM22.8926 27.25C22.8926 28.6289 24.0454 29.75 25.4634 29.75C26.8814 29.75 28.0343 28.6289 28.0343 27.25C28.0343 25.8711 26.8814 24.75 25.4634 24.75C24.0454 24.75 22.8926 25.8711 22.8926 27.25Z" fill="#969696"/>
</svg>
