<svg width="16" height="15" viewBox="0 0 16 15" fill="none" xmlns="http://www.w3.org/2000/svg">
<path d="M15.9278 5.62586C15.7356 5.0502 15.2109 4.67825 14.5911 4.67825H10.5942L9.33554 0.944038C9.14206 0.370002 8.61845 0 8.00044 0C7.99847 0 7.99644 0 7.99447 3.05257e-05C7.37393 0.00241153 6.85053 0.376993 6.66109 0.954325L5.43913 4.67825H1.40896C0.78761 4.67825 0.262494 5.05146 0.071208 5.629C-0.12011 6.20655 0.0816754 6.80955 0.585294 7.16518L3.84613 9.46786L2.59099 13.1917C2.39673 13.768 2.59514 14.3719 3.09645 14.7301C3.34823 14.91 3.63722 15 3.9264 15C4.21295 15 4.49967 14.9116 4.75019 14.7346L8.01669 12.428L11.2444 14.7308C11.7451 15.088 12.3936 15.0897 12.8964 14.7353C13.3992 14.3808 13.6018 13.7789 13.4125 13.202L12.1871 9.46786L15.4203 7.16124C15.9208 6.80415 16.12 6.20148 15.9278 5.62586Z" fill="#333333"/>
</svg>
