<svg width="20" height="20" viewBox="0 0 20 20" fill="none" xmlns="http://www.w3.org/2000/svg">
<path fill-rule="evenodd" clip-rule="evenodd" d="M20 9.19797C20 10 19.7884 10.6566 19.4006 11.1595C19.6154 12.032 19.5111 13.1079 19.0245 13.8706C19.193 14.7991 18.9035 15.7995 18.3126 16.4919C18.3876 18.5976 17.0996 20 14.7839 19.9995C14.6703 20.0005 13.7151 19.9998 13.3203 19.9995L13.1818 19.9995C11.3648 20 9.67075 19.4158 8.33539 18.9553C7.46694 18.6558 6.7502 18.4086 6.25 18.4086V18.75C6.25 19.4404 5.69035 20 5 20H1.25C0.559648 20 0 19.4404 0 18.75V8.75C0 8.05965 0.559648 7.5 1.25 7.5H5C5.42699 7.5 5.80379 7.71422 6.0293 8.04094C6.14828 8.01848 6.25754 7.99012 6.34305 7.9541C6.85439 7.67913 7.57152 6.75068 8.26214 5.85655L8.26215 5.85653L8.26218 5.8565C8.71208 5.27403 9.15072 4.70613 9.51391 4.34293C9.90059 3.95625 10.0263 3.31012 10.1594 2.62609C10.3822 1.48117 10.817 0 11.9887 0C14.3171 0 15.2273 1.35437 15.2273 3.63594C15.2273 4.76604 14.8174 5.57566 14.4856 6.23102C14.4629 6.27577 14.4406 6.3198 14.4189 6.36316H17.1591C18.7471 6.36316 20 7.72633 20 9.19797ZM1.25 8.75V18.75H5V8.75H1.25ZM17.8132 10.795C18.4375 11.25 18.4375 13.125 17.5941 13.5554C18.1223 14.4444 17.647 15.6341 17.0076 15.9771C17.3316 18.0294 16.267 18.7351 14.7728 18.7495C14.6703 18.7504 13.8181 18.7499 13.4001 18.7496H13.3995L13.1819 18.7495C11.5681 18.7495 10.0937 18.239 8.81526 17.7963L8.81524 17.7963C7.8369 17.4576 6.97336 17.1586 6.25004 17.1586V9.2041C7.25896 9.2041 8.21087 7.95899 9.13579 6.74918L9.1358 6.74917C9.5612 6.19273 9.9809 5.64376 10.3978 5.22684C11.0547 4.56999 11.2294 3.67208 11.3864 2.86487C11.5147 2.20577 11.6312 1.60715 11.9887 1.24961C13.9773 1.24961 13.9773 2.63699 13.9773 3.63598C13.9773 4.46725 13.6738 5.06706 13.3729 5.6616C13.0772 6.24573 12.7842 6.82477 12.7842 7.6132H17.1591C18.047 7.6132 18.7461 8.40867 18.75 9.2041C18.7539 9.99953 18.4375 10.625 17.8132 10.795ZM3.125 17.8125C3.64277 17.8125 4.0625 17.3928 4.0625 16.875C4.0625 16.3572 3.64277 15.9375 3.125 15.9375C2.60723 15.9375 2.1875 16.3572 2.1875 16.875C2.1875 17.3928 2.60723 17.8125 3.125 17.8125Z" fill="#0076DF"/>
</svg>
