<svg width="23" height="19" viewBox="0 0 23 19" fill="none" xmlns="http://www.w3.org/2000/svg">
<path d="M20.3115 3.01048C21.3409 2.36329 22.0281 1.48474 22.3617 0.363132C21.3582 0.90783 20.3575 1.27682 19.3569 1.48474C18.4598 0.500771 17.3212 0 15.9582 0C14.6241 0 13.4998 0.477343 12.5797 1.40274C11.6682 2.334 11.2053 3.47025 11.2053 4.79393C11.2053 5.19513 11.2542 5.55533 11.3548 5.8599C7.4213 5.71933 4.16927 4.06181 1.60445 0.863903C1.17027 1.64581 0.951744 2.44236 0.951744 3.26526C0.951744 4.95792 1.65333 6.29917 3.05076 7.28607C2.25428 7.21871 1.55269 7.01079 0.951744 6.67401C0.951744 7.88348 1.29966 8.8938 2.00125 9.78406C2.69996 10.6626 3.60283 11.2249 4.70121 11.4621C4.30154 11.5675 3.88174 11.6173 3.45043 11.6173C3.04788 11.6173 2.76897 11.5822 2.59932 11.5089C2.89836 12.4958 3.45043 13.2924 4.24978 13.9044C5.04626 14.5194 5.96637 14.8416 7.0015 14.8708C5.30216 16.2326 3.35267 16.9032 1.15014 16.9032C0.609576 16.9032 0.230029 16.8974 0 16.8534C2.16802 18.2854 4.58332 19 7.24878 19C9.98325 19 12.4014 18.2942 14.5004 16.8827C16.5994 15.48 18.155 13.7492 19.1499 11.7081C20.1505 9.67278 20.648 7.55256 20.648 5.34155V4.7295C21.6141 3.98859 22.399 3.15398 23 2.22858C22.1431 2.61806 21.2432 2.8787 20.3115 3.01048Z" fill="#3A96FF"/>
</svg>
